<svg width="498" height="362" viewBox="0 0 498 362" fill="none" xmlns="http://www.w3.org/2000/svg">
<path d="M360.416 321.998C359.05 322.193 357.509 322.128 356.174 321.998C347.572 321.998 339.646 316.807 332.443 312.913C325.241 309.019 319.254 302.347 310.647 302.174C308.961 302.14 307.242 302.109 305.556 302.174C301.552 302.404 297.602 303.505 294.16 305.488C290.716 307.467 288.807 308.985 286.412 312.454C284.02 315.923 288.321 318.438 291.129 320.307C293.934 322.176 300.13 320.593 301.032 325.113C301.934 329.633 294.44 330.094 291.324 328.605C288.208 327.115 284.452 326.141 281.803 323.697C282.532 334.362 290.64 340.586 300.274 344.279C309.908 347.972 322.368 349.96 333.269 350.034C344.17 350.107 357.707 348.983 367.466 345.483C377.222 341.98 384.73 338.564 392.441 331.697C400.153 324.83 404.431 318.107 408.498 308.696C412.561 299.283 414.139 285.998 413.39 275.178C412.64 264.357 410.115 253.035 406.773 243.007C403.427 232.982 400.404 223.971 396.895 214.102C394.46 215.974 387.549 216.846 386.998 212.686C386.449 208.528 391.488 207.161 393.719 204.691C395.951 202.222 398.982 200.137 401.208 197.464C403.433 194.791 405.483 192.234 407.57 189.393C409.657 186.553 411.571 183.571 413.319 180.424C415.064 177.275 416.676 173.877 418.112 170.496C419.546 167.117 420.722 163.266 421.78 159.729C419.716 162.244 415.089 161.156 412.146 162.541C409.199 163.923 404.293 163.306 400.854 163.693C397.415 164.081 392.651 163.121 389.26 162.844C385.869 162.566 382.304 161.445 379.17 160.488C376.037 159.531 372.898 158.514 370.008 157.203C367.121 155.889 364.494 154.433 361.807 152.955C359.124 151.474 356.652 149.913 354.28 148.033C351.91 146.15 350.038 144.193 347.903 141.959C345.771 139.721 344.402 137.396 342.666 134.743C340.93 132.089 339.926 129.28 338.834 126.12C337.743 122.962 337.016 119.436 336.668 115.828C336.323 112.221 336.363 107.318 336.662 103.657C336.962 99.9952 337.378 96.0503 338.076 92.6123C338.775 89.1744 339.869 86.0366 340.712 82.7913C341.557 79.5487 343.022 76.8442 344.233 73.8566C345.443 70.8689 346.775 68.1417 348.234 65.4033C349.693 62.6648 351.257 60.1841 352.993 57.709C354.732 55.2367 356.519 53.025 358.507 50.7708C360.495 48.5166 362.359 46.4804 364.587 44.3989C366.816 42.3175 369.038 40.6551 371.515 38.8767C373.99 37.0954 376.495 35.6115 379.278 34.187C382.057 32.7654 384.998 31.5364 388.038 30.5027C391.078 29.4691 395.524 28.1239 398.592 30.027C396.055 27.5915 393.205 26.1387 390.179 24.2923C387.15 22.4487 384.187 20.86 380.799 19.5262C377.409 18.1952 374.233 17.0001 370.602 15.8617C366.974 14.7204 362.927 14.0578 359.022 13.2988C355.117 12.537 350.711 12.2142 346.56 11.9027C342.409 11.5912 337.135 11.4977 332.989 11.9055C328.844 12.3133 324.463 12.622 320.547 13.3215C316.627 14.021 312.617 14.9215 308.97 15.8872C305.325 16.8557 302.03 18.0621 298.792 19.5715C295.552 21.0781 292.823 22.9132 290.074 25.0003C287.325 27.0874 285.473 29.3756 283.005 31.7969C280.536 34.2182 278.91 37.0813 276.925 39.8679C274.942 42.6573 273.234 45.6195 271.6 48.695C269.968 51.7733 268.503 54.7666 267.075 58.0403C265.65 61.3168 264.414 64.8284 263.116 68.2352C261.821 71.6448 260.767 75.0913 259.684 78.6736C258.598 82.256 257.549 86.0083 256.573 89.7181C255.597 93.4251 254.709 96.9905 253.804 100.822C252.9 104.654 252.178 108.729 251.539 112.713C250.897 116.695 249.899 120.461 249.566 124.613C249.232 128.765 248.901 133.95 249 138.206C249.099 142.463 249.317 147.183 249.911 151.171C250.504 155.158 251.565 158.99 252.586 162.651C253.607 166.313 254.998 169.592 256.55 172.843C258.1 176.092 259.661 178.799 261.654 181.605C263.645 184.415 265.514 187.017 268.017 189.393C270.52 191.772 272.621 193.859 275.369 195.907C278.121 197.951 280.884 199.829 284 201.423C287.119 203.017 289.953 204.671 293.391 205.898C296.827 207.121 299.935 208.523 303.554 209.876C307.174 211.23 307.57 216.585 303.3 217.222C299.033 217.862 295.006 217.044 291.197 215.738C287.388 214.43 284.557 214.306 281.152 211.924C277.745 209.539 275.46 212.213 273.249 215.164C271.04 218.117 269.058 220.159 267.664 223.447C286.848 232.158 304.329 244.287 319.978 258.846C322.645 257.15 324.811 255.32 327.591 253.726C330.371 252.134 333.08 250.86 336.077 249.481C339.075 248.099 342.044 247.252 345.367 246.323C348.689 245.394 352.476 244.437 356.174 244.403C359.873 244.369 363.79 244.454 367.138 245.884C370.486 247.314 371.804 251.019 370.879 254.315C369.954 257.608 369.635 261.086 368.269 264.161C366.903 267.237 365.925 269.882 364.07 272.7C362.218 275.52 361.641 277.879 359.073 280.439C356.508 283.002 359.639 285.044 361.33 287.666C363.021 290.289 364.556 293.106 365.571 296.162C366.586 299.218 367.887 302.593 368.241 305.949C368.594 309.305 369.406 314.162 368.269 317.402C367.132 320.641 363.377 321.884 360.416 321.998ZM290.569 94.3115C293.773 94.623 297.836 96.3703 300.113 98.9134C302.389 101.456 305.098 103.971 305.774 107.403C306.45 110.836 308.543 115.571 304.496 118.454C300.447 121.336 297.737 116.231 297.984 112.373C298.23 108.516 295.102 105.965 292.068 103.855C289.036 101.742 284.353 104.005 281.322 105.724C278.293 107.446 277.9 112.26 273.882 112.433C269.864 112.606 268.953 106.463 271.427 103.745C273.899 101.023 275.316 98.6443 278.715 96.8829C282.114 95.1243 286.486 93.915 290.569 94.3115ZM316.302 162.844C316.084 162.952 315.838 163.294 315.454 163.127C315.454 164.92 315.454 166.715 315.454 168.508C315.609 172.572 317.727 175.508 320.897 178.065C324.065 180.626 327.599 182.146 331.855 182.384C336.111 182.619 339.408 180.325 342.813 178.065C346.221 175.808 345.149 170.589 349.693 169.663C354.235 168.734 355.083 176.123 352.973 179.178C350.861 182.231 349.193 185.21 345.782 187.269C342.372 189.331 338.588 191.078 334.4 191.163C332.873 191.347 331.094 191.308 329.593 191.163C321.191 191.163 312.205 185.281 308.95 177.57C306.176 179.031 304.586 181.243 301.532 182.602C298.478 183.962 294.251 184.63 290.849 184.086C287.45 183.542 284.385 182.571 281.591 180.614C278.8 178.655 277.306 176.868 275.321 174.149C273.336 171.43 272.841 167.899 272.564 164.637C272.287 161.374 275.873 157.22 278.757 159.664C281.642 162.11 280.262 166.01 282.453 168.706C284.645 171.402 286.112 173.39 289.347 174.545C292.58 175.704 296.456 175.486 299.25 173.52C302.041 171.552 303.438 169.451 304.926 166.46C306.413 163.47 307.474 160.261 304.496 158.242C301.515 156.223 300.743 153.765 298.968 151.038C297.189 148.308 296.53 144.332 296.507 141.038C296.485 137.745 298.196 134.737 301.097 132.891C303.998 131.044 308.291 131.033 311.684 131.503C315.078 131.973 319.045 132.692 322.246 133.669C325.45 134.644 328.111 135.731 330.922 137.442C333.73 139.155 335.806 141.644 336.19 144.909C336.575 148.177 334.765 151.298 332.633 153.711C330.501 156.124 328.609 157.965 325.846 159.658C323.086 161.354 319.512 162.388 316.302 162.844Z" stroke="#F7F9FD" stroke-width="0.3"/>
<path d="M284.348 15.5846C281.511 14.6105 277.536 14.0611 274.456 14.4575C271.377 14.8568 268.294 15.4204 265.464 16.2133C262.633 17.0063 260.139 18.0484 257.503 19.0028C254.871 19.96 252.566 21.1465 250.154 22.4039C247.742 23.6613 245.584 24.9611 243.274 26.2751C240.96 27.5863 239.086 29.1892 236.905 30.6589C234.725 32.1287 232.966 33.6749 230.973 35.4789C228.979 37.2828 227.438 38.6818 225.458 40.7179C223.482 42.7541 222.809 44.3909 220.524 46.5375C218.239 48.6869 218.912 51.8785 219.308 54.9483C219.704 58.0181 219.543 61.946 219.873 65.1432C220.207 68.3405 219.678 72.7158 219.873 75.9045C220.069 79.0933 219.277 83.0438 220.934 85.6038C222.591 88.1667 223.414 90.0046 224.703 92.5902C225.99 95.1786 226.816 97.4554 227.986 100.064C229.16 102.669 229.974 105.147 230.922 107.885C231.869 110.621 232.644 113.541 233.47 116.378C234.292 119.219 235.882 122.427 237.185 119.012C238.492 115.6 238.718 113.694 239.448 110.516C240.177 107.342 240.946 104.937 241.656 101.967C242.366 98.996 243.316 96.3991 243.918 93.4681C244.518 90.5399 245.55 87.8807 246.234 85.029C246.922 82.18 247.985 79.5407 248.723 76.7597C249.464 73.9816 250.476 71.2687 251.282 68.5613C252.091 65.8569 253.185 63.2288 254.099 60.6206C255.009 58.0096 256.169 55.4779 257.22 52.9858C258.275 50.4937 259.375 48.0073 260.665 45.6738C261.951 43.3374 263.309 41.1314 264.618 38.8715C265.925 36.6088 267.398 34.4792 268.865 32.3638C270.33 30.2483 271.894 28.232 273.531 26.2751C275.171 24.3183 276.984 22.5852 278.763 20.7529C280.539 18.9206 283.092 17.7312 284.348 15.5846Z" stroke="#8C6474" stroke-width="0.3"/>
<path d="M14.008 61.4612C14.008 64.3866 14.008 67.3148 14.008 70.2401C14.008 77.3228 15.7132 85.1502 16.5531 91.7627C17.3957 98.3752 21.5187 104.985 19.3158 111.238C17.113 117.491 14.2823 122.591 13.253 129.237C12.2237 135.884 11.019 144.317 11.4828 151.213C11.9494 158.109 13.2077 165.393 15.2014 171.561C17.1978 177.726 19.6891 182.704 22.7969 188.025C25.9047 193.346 28.9785 196.983 32.9544 201.641C34.6285 203.318 36.3846 205.076 38.0445 206.739C40.5698 208.996 43.2194 211.023 45.8917 213.04C48.5668 215.056 51.6237 216.88 54.3808 218.698C57.138 220.516 60.7265 222.127 63.4299 223.795C66.1333 225.463 70.6493 227.225 69.8094 231.187C68.9696 235.146 62.508 234.081 59.5416 232.787C56.578 231.49 52.7633 230.003 49.8507 228.332C46.9352 226.664 44.0791 224.835 41.1551 223.164C38.07 231.756 35.802 239.767 32.7621 248.458C29.7222 257.152 27.9718 267.472 27.8643 276.97C27.7569 286.468 29.3405 296.768 33.5426 304.7C37.7419 312.635 41.7122 317.444 49.0504 322.587C56.3886 327.729 63.6589 330.448 72.4817 332.821C81.3017 335.197 92.3048 336.548 101.953 336.724C111.602 336.899 123.764 336.33 132.491 333.889C141.22 331.448 148.191 327.633 150.592 318.599C146.981 318.877 144.122 321.867 140.152 320.842C136.178 319.82 139.634 314.077 141.916 313.309C144.198 312.542 149.902 311.749 149.964 309.033C150.023 306.317 146.989 303.219 145.148 301.112C143.31 299.005 140.01 297.377 137.211 296.318C134.411 295.261 129.779 294.528 126.555 294.528C124.01 294.528 121.465 294.528 118.92 294.528C113.898 294.528 108.57 295.052 103.65 295.094C98.7296 295.137 93.3539 295.117 88.7247 294.466C84.0956 293.814 80.4788 293.041 76.2258 291.407C71.9755 289.773 69.965 289.119 66.252 285.82C62.5419 282.521 66.7045 277.183 71.065 279.584C75.4255 281.985 78.1572 282.447 82.7241 283.484C87.2882 284.52 92.3698 284.616 97.146 284.616C99.1255 284.616 101.105 284.616 103.084 284.616C106.729 284.781 110.25 284.418 113.83 284.333C110.352 279.445 105.941 271.267 109.942 265.713C113.94 260.157 116.715 255.779 121.253 250.987C125.792 246.196 129.838 242.514 134.685 238.385C139.532 234.256 144.45 230.818 149.828 227.497C155.21 224.178 161.117 221.068 166.971 218.61C172.827 216.155 179.173 213.447 184.786 210.397C190.396 207.347 195.181 204.133 200.079 199.942C201.563 198.455 203.13 196.884 204.603 195.411C211.011 188.005 216.491 179.844 219.873 170.773C216.93 169.227 213.463 168.562 210.259 167.941C207.055 167.321 201.447 167.392 198.385 167.372C195.322 167.355 190.054 166.882 191.033 163.13C192.011 159.375 197.63 160.949 200.927 160.578C204.224 160.207 209.207 161.077 212.521 161.428C215.835 161.779 219.203 162.513 222.136 163.977C224.143 157.412 224.833 150.491 225.529 143.587C222.594 146.824 216.788 146.345 213.092 147.557C209.396 148.769 203.953 150.027 200.837 151.709C197.72 153.388 190.441 156.245 189.899 151.516C189.356 146.787 195.981 146.082 199.211 144.417C202.437 142.749 208.11 141.545 211.956 140.755C215.799 139.965 222.181 138.232 225.529 141.321C225.54 135.524 225.263 128.657 224.053 123.259C222.843 117.862 221.782 112.991 219.808 107.97C217.835 102.949 216.675 99.1484 213.74 94.5097C210.802 89.8682 208.797 85.3173 209.411 79.3023C210.024 73.2873 209.368 65.9186 209.108 60.0651C208.845 54.2115 207.541 48.6213 206.577 43.0594C205.61 37.5003 204.4 33.3686 201.71 28.3929C199.021 23.4172 192.724 27.9709 188.504 29.4803C184.288 30.9898 179.939 34.0879 175.824 36.3223C171.71 38.5566 168.212 41.4254 164.188 44.2092C160.167 46.9958 157.786 49.8843 153.632 53.1778C149.478 56.4685 142.555 54.1209 137.307 53.5262C132.061 52.9286 124.474 52.5775 118.92 52.9654C113.366 53.3534 106.834 54.0076 101.671 55.231C96.5069 56.4544 91.0549 57.6438 86.4229 59.5015C81.7881 61.3564 76.4718 65.0294 71.9077 62.3816C67.3436 59.7366 64.2754 57.2105 59.7311 55.0356C55.1896 52.8578 50.9168 50.5611 46.3074 48.9385C41.7009 47.3158 36.328 44.9426 31.73 43.9968C27.1348 43.0509 19.33 39.8084 16.7708 44.9709C14.2116 50.1335 14.008 55.6954 14.008 61.4612ZM194.706 39.6554C197.559 40.522 197.322 44.8463 198.099 47.3016C198.874 49.7597 199.31 54.4154 199.513 57.2133C199.717 60.0113 200.107 65.6213 199.796 68.2578C199.485 70.8943 199.697 75.6718 196.945 76.4477C194.194 77.2208 192.158 73.2476 189.983 72.1375C187.812 71.0274 185.713 68.6344 183.465 67.3374C181.217 66.0404 178.799 64.7406 176.585 63.183C174.371 61.6254 171.767 60.8693 169.892 58.5585C168.017 56.2476 170.963 53.1523 172.861 51.4787C174.758 49.805 176.91 48.0351 179.068 46.6503C181.223 45.2626 183.539 43.1557 186.005 42.2693C188.47 41.3829 191.853 38.7889 194.706 39.6554ZM33.2372 56.9301C37.4054 57.5277 40.6913 59.1475 44.7436 60.6994C48.7987 62.2485 50.4558 63.874 54.5166 66.2047C58.5773 68.5382 57.2115 72.4745 53.8096 74.7004C50.4106 76.9291 48.3632 79.3533 45.6089 81.7802C42.8575 84.2072 40.1965 86.8947 37.9738 89.4264C35.7511 91.9581 31.7526 96.8234 29.3433 92.5472C26.934 88.271 27.706 84.4054 26.7332 79.8687C25.7604 75.3291 26.2468 69.8748 26.261 65.2361C26.2751 60.5975 27.8672 56.1627 33.2372 56.9301ZM178.022 109.321C181.658 109.76 185.17 111.6 187.99 114.347C190.809 117.097 193.145 120.045 192.726 124.613C192.308 129.181 186.109 129.504 185.004 125.267C183.901 121.028 180.555 119.482 176.888 118.386C173.223 117.29 168.461 118.864 165.65 121.852C162.839 124.84 162.373 127.85 160.684 131.888C158.999 135.929 151.963 133.981 152.854 129.427C153.748 124.874 154.565 122.129 157.025 118.595C159.488 115.064 161.383 113.614 165.036 111.609C168.687 109.601 173.622 108.788 178.022 109.321ZM90.642 119.232C94.4737 119.603 99.5666 121.518 102.307 124.542C105.044 127.569 109.747 130.475 108.081 135.564C106.416 140.653 100.621 137.858 99.0406 133.477C97.4599 129.096 91.858 128.21 87.8142 127.728C83.7704 127.247 78.7878 130.005 76.1494 133.038C73.5139 136.071 73.5563 143.134 68.3955 142.077C63.2347 141.021 65.7685 133.565 67.8073 130.348C69.8462 127.133 72.5326 123.902 76.2851 121.846C80.0377 119.79 86.0185 118.785 90.642 119.232ZM141.826 162.844C142.323 165.919 143.997 168.496 146.562 170.561C149.127 172.625 153.683 172.688 156.72 172.096C159.757 171.504 162.324 168.986 164.143 166.786C165.958 164.585 167.2 159.918 170.859 161.238C174.518 162.558 173.138 167.344 171.866 169.989C170.593 172.634 168.633 174.967 166.074 176.933C163.518 178.901 160.399 179.595 157.189 180.495C153.977 181.396 149.404 180.444 146.344 179.841C143.285 179.241 140.672 175.078 138.455 177.309C136.241 179.541 134.538 181.557 131.58 182.885C128.622 184.214 124.596 185.049 121.182 184.933C117.769 184.817 114.079 183.701 111.22 182.166C108.361 180.631 106.585 178.445 105.087 175.848C103.588 173.254 103 168.27 106.67 167.284C110.341 166.296 111.285 170.64 113.335 172.968C115.388 175.293 119.059 176.754 122.314 176.437C125.568 176.12 128.942 175.542 131.151 172.826C133.359 170.108 134.739 167.021 134.473 163.41C129.768 162.147 126.688 160.103 123.515 155.976C120.34 151.853 122.548 146.895 127.706 145.306C132.864 143.717 138.359 143.442 144.088 143.304C149.817 143.165 153.083 148.274 150.657 152.997C148.231 157.721 146.13 160.097 141.826 162.844ZM53.3147 163.977C50.6764 163.977 48.0352 163.977 45.3968 163.977C41.1579 163.977 38.1237 164.469 33.8028 164.826C29.4819 165.183 28.2885 160.318 32.1711 158.944C36.0537 157.571 39.235 157.48 43.1346 157.18C47.0342 156.88 51.6548 156.82 55.2942 157.18C58.9336 157.54 63.1697 157.834 66.2294 158.689C69.2891 159.545 74.1869 159.729 73.9578 163.693C73.7288 167.658 67.5047 166.259 64.6232 165.395C61.7416 164.529 56.6459 163.977 53.3147 163.977ZM72.8267 173.888C77.7528 174.69 75.7422 180.246 71.6899 180.396C67.6348 180.543 63.6985 181.809 59.8187 182.384C55.9361 182.959 53.1055 184.921 49.336 185.763C45.5665 186.601 43.1204 189.804 38.8929 189.464C34.6624 189.124 35.6239 183.296 39.2407 182.166C42.8575 181.036 45.3997 179.028 49.0928 178.156C52.7888 177.287 56.2217 175.743 60.1072 175.31C63.9954 174.88 68.7151 173.22 72.8267 173.888Z" stroke="#F7F9FD" stroke-width="0.3"/>
<path d="M421.78 159.729C422.164 158.447 423.468 156.263 423.194 154.915C422.905 153.873 420.233 152.197 419.518 151.234C410.333 138.867 409.903 120.292 409.903 105.073C409.748 103.459 409.62 101.5 409.62 99.6928C409.62 95.4421 409.541 90.5881 409.337 86.3827C409.134 82.1802 408.882 77.7935 408.766 73.6448C408.647 69.4988 407.748 65.4266 407.358 61.4619C406.968 57.4972 406.761 53.0312 406.221 49.2903C405.681 45.5521 405.5 40.2027 405.096 36.8242C404.691 33.4457 401.258 31.6814 398.592 30.0276C395.524 28.1245 391.078 29.4697 388.038 30.5033C384.998 31.537 382.057 32.766 379.278 34.1877C376.495 35.6121 373.99 37.096 371.515 38.8773C369.038 40.6558 366.816 42.3181 364.587 44.3996C362.359 46.481 360.495 48.5172 358.507 50.7714C356.519 53.0256 354.732 55.2373 352.993 57.7096C351.257 60.1847 349.693 62.6654 348.234 65.4039C346.775 68.1424 345.443 70.8695 344.233 73.8572C343.022 76.8448 341.557 79.5493 340.712 82.7919C339.869 86.0373 338.775 89.175 338.076 92.613C337.378 96.0509 336.962 99.9958 336.662 103.657C336.363 107.319 336.323 112.221 336.668 115.829C337.016 119.437 337.743 122.963 338.834 126.12C339.926 129.281 340.93 132.09 342.666 134.743C344.402 137.397 345.771 139.722 347.903 141.959C350.038 144.194 351.91 146.15 354.28 148.034C356.652 149.914 359.124 151.474 361.807 152.955C364.494 154.434 367.121 155.889 370.008 157.203C372.898 158.515 376.037 159.531 379.17 160.488C382.303 161.446 385.869 162.567 389.26 162.845C392.651 163.122 397.415 164.082 400.854 163.694C404.293 163.306 409.199 163.924 412.146 162.542C415.089 161.157 419.716 162.244 421.78 159.729ZM370.879 108.472C374.165 109.007 377.759 111.182 380.282 113.498C382.801 115.815 385.298 118.873 386.13 122.085C386.958 125.299 389.345 130.937 384.713 132.804C380.084 134.673 379.312 128.754 378.296 125.398C377.281 122.042 374.425 119.448 371.1 117.879C367.771 116.31 363.046 117.82 360.628 120.578C358.21 123.339 357.653 127.876 353.157 127.352C348.658 126.828 349.489 121.218 351.585 118.318C353.68 115.418 355.227 112.807 358.635 110.935C362.042 109.061 366.635 107.781 370.879 108.472Z" stroke="#F9C7A5" stroke-width="0.3"/>
<path d="M415.559 36.2576C416.362 47.7382 418.437 58.9837 418.955 70.521C419.47 82.061 420.298 95.0114 420.366 106.489C420.434 117.967 421.508 128.827 425.236 138.994C428.965 149.158 440.554 152.61 449.47 148.662C458.386 144.717 463.832 139.396 470.206 132.047C476.58 124.696 480.299 117.463 484.28 108.477C488.265 99.4943 484.207 87.3851 479.12 79.6511C474.032 71.9171 469.188 65.3782 462.995 58.4174C456.803 51.4565 451.302 45.7927 443.766 40.2931C436.23 34.7935 424.509 30.6249 415.559 36.2576Z" stroke="#8C6474" stroke-width="0.3"/>
<path d="M194.706 39.6556C191.853 38.789 188.47 41.3831 186.005 42.2695C183.539 43.1559 181.223 45.2628 179.068 46.6504C176.91 48.0353 174.758 49.8052 172.861 51.4789C170.963 53.1525 168.017 56.2478 169.892 58.5587C171.766 60.8695 174.371 61.6256 176.585 63.1832C178.799 64.7407 181.217 66.0406 183.465 67.3376C185.713 68.6346 187.812 71.0276 189.983 72.1377C192.158 73.2478 194.194 77.221 196.945 76.4479C199.697 75.6719 199.485 70.8945 199.796 68.258C200.107 65.6215 199.717 60.0114 199.513 57.2135C199.309 54.4156 198.874 49.7599 198.099 47.3018C197.322 44.8465 197.559 40.5222 194.706 39.6556Z" stroke="#F9C7A5" stroke-width="0.3"/>
<path d="M33.2372 56.9303C27.8672 56.1628 26.2751 60.5976 26.261 65.2363C26.2468 69.875 25.7604 75.3293 26.7332 79.8688C27.706 84.4056 26.934 88.2711 29.3433 92.5473C31.7526 96.8235 35.7511 91.9583 37.9738 89.4265C40.1965 86.8948 42.8575 84.2073 45.6089 81.7804C48.3632 79.3534 50.4106 76.9293 53.8096 74.7006C57.2115 72.4747 58.5773 68.5383 54.5166 66.2048C50.4558 63.8742 48.7987 62.2486 44.7436 60.6996C40.6913 59.1477 37.4054 57.5278 33.2372 56.9303Z" stroke="#F9C7A5" stroke-width="0.3"/>
<path d="M14.008 70.2404C14.008 67.315 14.008 64.3868 14.008 61.4614C13.7422 64.2027 13.7422 67.4793 14.008 70.2404Z" stroke="#8C6474" stroke-width="0.3"/>
<path d="M290.569 94.3114C286.486 93.9149 282.114 95.1241 278.715 96.8828C275.316 98.6442 273.899 101.023 271.428 103.744C268.953 106.463 269.864 112.606 273.882 112.433C277.9 112.26 278.293 107.446 281.322 105.724C284.354 104.005 289.036 101.742 292.068 103.855C295.102 105.965 298.23 108.516 297.984 112.373C297.738 116.23 300.447 121.336 304.496 118.453C308.543 115.571 306.45 110.836 305.774 107.403C305.098 103.971 302.389 101.456 300.113 98.9132C297.837 96.3702 293.773 94.6229 290.569 94.3114Z" stroke="#50304D" stroke-width="0.3"/>
<path d="M409.903 105.073C409.903 103.266 409.776 101.307 409.62 99.6924C409.62 101.499 409.748 103.459 409.903 105.073Z" stroke="#8C6474" stroke-width="0.3"/>
<path d="M370.879 108.472C366.635 107.781 362.042 109.061 358.635 110.935C355.227 112.807 353.68 115.418 351.585 118.318C349.489 121.218 348.658 126.828 353.157 127.352C357.653 127.876 358.21 123.339 360.628 120.578C363.046 117.82 367.771 116.31 371.1 117.879C374.425 119.448 377.281 122.042 378.296 125.398C379.312 128.754 380.084 134.673 384.713 132.803C389.345 130.937 386.958 125.299 386.13 122.085C385.298 118.873 382.801 115.815 380.282 113.498C377.759 111.182 374.165 109.007 370.879 108.472Z" stroke="#50304D" stroke-width="0.3"/>
<path d="M178.022 109.321C173.622 108.788 168.687 109.601 165.036 111.609C161.383 113.614 159.488 115.064 157.025 118.595C154.565 122.13 153.748 124.874 152.854 129.427C151.963 133.981 158.999 135.93 160.684 131.888C162.373 127.85 162.839 124.84 165.65 121.852C168.461 118.864 173.223 117.29 176.888 118.386C180.555 119.482 183.901 121.028 185.004 125.267C186.109 129.504 192.308 129.181 192.726 124.613C193.145 120.045 190.809 117.097 187.99 114.347C185.17 111.601 181.658 109.76 178.022 109.321Z" stroke="#50304D" stroke-width="0.3"/>
<path d="M90.642 119.233C86.0185 118.785 80.0376 119.791 76.2851 121.847C72.5326 123.903 69.8462 127.134 67.8073 130.348C65.7685 133.565 63.2347 141.022 68.3955 142.078C73.5563 143.134 73.5139 136.071 76.1494 133.038C78.7877 130.005 83.7704 127.247 87.8142 127.729C91.8579 128.21 97.4599 129.096 99.0406 133.477C100.621 137.858 106.416 140.653 108.081 135.564C109.747 130.476 105.044 127.57 102.307 124.543C99.5666 121.518 94.4737 119.604 90.642 119.233Z" stroke="#50304D" stroke-width="0.3"/>
<path d="M141.826 162.844C146.13 160.097 148.231 157.721 150.657 152.997C153.083 148.274 149.817 143.165 144.088 143.304C138.359 143.442 132.864 143.717 127.706 145.306C122.548 146.894 120.34 151.853 123.515 155.976C126.688 160.102 129.768 162.147 134.473 163.41C134.739 167.021 133.359 170.108 131.151 172.826C128.942 175.542 125.568 176.12 122.314 176.437C119.059 176.754 115.388 175.293 113.335 172.968C111.285 170.64 110.341 166.296 106.67 167.284C103 168.27 103.588 173.254 105.086 175.848C106.585 178.445 108.361 180.631 111.22 182.166C114.079 183.701 117.769 184.817 121.182 184.933C124.596 185.049 128.622 184.213 131.58 182.885C134.538 181.557 136.241 179.541 138.455 177.309C140.672 175.078 143.285 179.241 146.344 179.841C149.404 180.444 153.977 181.396 157.189 180.495C160.399 179.595 163.518 178.901 166.074 176.933C168.633 174.967 170.593 172.634 171.866 169.989C173.138 167.344 174.518 162.558 170.859 161.238C167.2 159.918 165.958 164.585 164.143 166.786C162.324 168.986 159.757 171.504 156.72 172.096C153.683 172.688 149.127 172.625 146.562 170.561C143.997 168.496 142.323 165.919 141.826 162.844Z" stroke="#50304D" stroke-width="0.3"/>
<path d="M423.194 154.915C422.928 153.595 420.369 152.21 419.518 151.233C420.233 152.196 422.905 153.873 423.194 154.915Z" stroke="#8C6474" stroke-width="0.3"/>
<path d="M45.3968 163.977C47.8881 163.736 50.8432 163.736 53.3147 163.977C56.6459 163.977 61.7416 164.529 64.6232 165.396C67.5047 166.26 73.7288 167.659 73.9578 163.694C74.1869 159.729 69.2891 159.545 66.2294 158.69C63.1697 157.835 58.9336 157.54 55.2942 157.181C51.6548 156.821 47.0341 156.88 43.1346 157.181C39.235 157.481 36.0537 157.571 32.1711 158.945C28.2885 160.318 29.4818 165.184 33.8028 164.827C38.1237 164.47 41.1579 163.977 45.3968 163.977Z" stroke="#50304D" stroke-width="0.3"/>
<path d="M45.3968 163.976C48.0351 163.976 50.6763 163.976 53.3147 163.976C50.8432 163.736 47.8881 163.736 45.3968 163.976Z" stroke="#8C6474" stroke-width="0.3"/>
<path d="M72.8267 173.889C68.715 173.22 63.9954 174.88 60.1071 175.31C56.2217 175.744 52.7887 177.287 49.0928 178.156C45.3996 179.029 42.8574 181.036 39.2406 182.166C35.6239 183.296 34.6624 189.124 38.8928 189.464C43.1204 189.804 45.5665 186.601 49.336 185.763C53.1055 184.922 55.9361 182.959 59.8187 182.384C63.6985 181.809 67.6348 180.544 71.6899 180.396C75.7422 180.246 77.7528 174.69 72.8267 173.889Z" stroke="#50304D" stroke-width="0.3"/>
<path d="M334.4 191.164C332.8 191.195 331.193 191.164 329.593 191.164C331.094 191.308 332.873 191.348 334.4 191.164Z" stroke="#8C6474" stroke-width="0.3"/>
<path d="M200.079 199.942C201.668 198.583 203.235 197.017 204.603 195.411C203.13 196.884 201.563 198.455 200.079 199.942Z" stroke="#8C6474" stroke-width="0.3"/>
<path d="M38.0445 206.739C36.3846 205.076 34.6285 203.318 32.9544 201.641C34.4786 203.425 36.2488 205.201 38.0445 206.739Z" stroke="#8C6474" stroke-width="0.3"/>
<path d="M360.133 254.598C355.567 254.697 350.129 255.419 346.014 256.883C341.902 258.348 338.39 259.503 334.706 261.701C331.021 263.901 328.366 265.43 325.139 268.545C321.913 271.66 317.054 270.143 314.111 267.271C311.167 264.399 308.308 262.593 305.344 259.908C302.378 257.226 299.183 255.252 296.14 252.701C293.097 250.149 289.953 248.283 286.675 246.037C283.398 243.792 280.194 241.894 276.642 239.943C273.09 237.995 269.544 236.089 265.749 234.426C261.954 232.764 258.346 231.141 254.282 229.768C250.216 228.394 246.257 227.143 241.936 225.99C237.618 224.835 232.785 224.025 228.136 223.385C223.487 222.745 218.281 222.125 213.369 222.031C208.458 221.938 202.511 222.059 197.816 222.597C193.122 223.136 188.106 223.883 183.74 224.925C179.376 225.97 175.525 227.4 171.526 228.836C167.525 230.269 164.055 232.014 160.404 233.837C156.751 235.664 153.439 237.828 150.224 240.07C147.009 242.31 143.85 244.44 141 246.975C138.149 249.512 135.18 251.99 132.706 254.811C130.231 257.634 126.589 260.361 124.929 263.448C123.269 266.532 118.049 269.579 119.415 273.076C120.784 276.574 124.106 278.904 126.343 282.28C128.577 285.656 135.313 284.642 138.978 286.052C142.64 287.465 146.61 288.743 149.673 291.484C152.738 294.222 155.303 296.346 157.167 300.121C159.027 303.899 160.894 308.365 160.772 312.936C160.65 317.506 165.97 318.342 169.626 320.214C173.279 322.083 177.139 323.425 181.223 324.739C185.309 326.053 189.746 327.308 194.14 328.228C198.532 329.151 203.605 329.854 208.279 330.21C212.954 330.567 219.339 330.777 224.095 330.474C228.849 330.168 234.281 329.517 238.758 328.732C243.234 327.948 247.58 326.784 251.638 325.49C255.693 324.195 259.884 323.097 263.399 321.126C266.917 319.157 271.812 318.594 273.622 314.938C275.435 311.282 276.549 307.671 279.456 304.638C282.363 301.605 284.348 299.229 288.001 297.054C291.658 294.882 295.586 293.344 299.895 292.54C304.202 291.733 310.251 291.532 314.6 292.268C318.949 293.007 322.467 294.687 325.987 297.006C329.508 299.325 332.376 301.353 335.902 303.505C339.425 305.655 342.561 307.433 346.365 309.166C350.165 310.902 354.713 312.451 359.002 312.652C358.465 308.042 358.213 302.585 355.827 298.558C353.44 294.531 352.976 291.396 348.751 288.369C344.527 285.341 345.451 281.224 349.128 278.126C352.807 275.03 353.785 271.74 356.237 267.97C358.691 264.201 359.868 259.121 360.133 254.598ZM209.976 257.147C210.638 261.78 210.711 267.197 210.259 271.873C210.259 276.529 209.213 281.55 208.469 285.939C207.728 290.328 205.873 294.129 204.623 298.229C203.376 302.333 200.424 304.836 199.013 308.753C197.602 312.669 191.041 315.014 189.624 310.381C188.205 305.745 192.712 303.307 194.118 299.32C195.526 295.335 197.686 291.988 198.603 287.669C199.519 283.351 200.613 278.457 200.921 273.85C201.227 269.239 201.399 262.853 200.834 258.373C200.271 253.893 200.161 248.218 198.727 244.341C197.293 240.464 195.865 233.625 201.21 233.642C206.557 233.662 206.571 239.476 207.711 243.273C208.853 247.071 209.815 252.947 209.976 257.147ZM170.104 249.501C176.828 250.594 179.69 259.67 175.265 264.581C170.839 269.491 162.285 269.197 159.423 262.462C156.561 255.728 162.619 248.283 170.104 249.501ZM248.717 271.306C248.972 273.091 249.034 275.2 248.717 276.97C248.451 280.898 245.85 285.913 243.132 288.652C240.412 291.388 235.969 296.697 231.968 292.894C227.97 289.091 232.658 285.803 236.346 282.988C240.033 280.173 239.866 274.393 239.448 269.828C239.029 265.263 233.19 262.876 233.73 257.996C234.27 253.117 241.803 254.468 243.839 258.634C245.878 262.797 248.528 266.311 248.717 271.306ZM263.705 280.652C263.79 279.386 263.821 277.95 263.705 276.687C263.051 273.524 261.598 269.112 266.253 268.761C270.907 268.407 271.04 272.357 272.183 275.56C273.322 278.766 272.528 283.47 271.628 286.604C270.732 289.742 269.278 292.342 267.027 294.741C264.774 297.136 262.022 299.529 258.595 297.38C255.165 295.233 257.088 291.495 259.675 289.643C262.263 287.791 263.51 283.532 263.705 280.652Z" stroke="#F9C7A5" stroke-width="0.3"/>
<path d="M210.259 271.873C210.259 266.895 210.163 262.075 209.976 257.147C209.815 252.947 208.853 247.071 207.711 243.273C206.571 239.476 206.557 233.662 201.21 233.642C195.865 233.625 197.293 240.464 198.727 244.341C200.161 248.218 200.271 253.893 200.834 258.373C201.399 262.853 201.227 269.239 200.921 273.85C200.613 278.457 199.519 283.351 198.603 287.669C197.686 291.988 195.526 295.335 194.118 299.32C192.712 303.307 188.205 305.746 189.624 310.381C191.041 315.014 197.601 312.67 199.013 308.753C200.424 304.837 203.376 302.333 204.623 298.23C205.873 294.129 207.728 290.329 208.469 285.939C209.213 281.55 210.259 276.529 210.259 271.873Z" stroke="#50304D" stroke-width="0.3"/>
<path d="M170.104 249.501C162.619 248.283 156.561 255.728 159.423 262.463C162.285 269.197 170.839 269.491 175.265 264.581C179.69 259.67 176.828 250.594 170.104 249.501Z" stroke="#50304D" stroke-width="0.3"/>
<path d="M248.717 276.97C248.842 275.121 248.788 273.159 248.717 271.307C248.528 266.311 245.878 262.797 243.839 258.634C241.803 254.468 234.27 253.117 233.73 257.997C233.19 262.876 239.029 265.263 239.448 269.828C239.866 274.393 240.033 280.173 236.345 282.988C232.658 285.803 227.969 289.091 231.968 292.894C235.969 296.698 240.412 291.388 243.132 288.652C245.85 285.914 248.451 280.898 248.717 276.97Z" stroke="#50304D" stroke-width="0.3"/>
<path d="M210.259 271.873C210.711 267.197 210.638 261.78 209.976 257.147C210.163 262.075 210.259 266.894 210.259 271.873Z" stroke="#8C6474" stroke-width="0.3"/>
<path d="M263.705 276.688C263.973 277.993 263.934 279.369 263.705 280.652C263.51 283.532 262.262 287.791 259.675 289.644C257.088 291.496 255.165 295.234 258.595 297.38C262.022 299.53 264.774 297.137 267.027 294.741C269.278 292.342 270.732 289.743 271.628 286.605C272.527 283.47 273.322 278.766 272.182 275.56C271.04 272.358 270.907 268.407 266.253 268.761C261.598 269.112 263.051 273.524 263.705 276.688Z" stroke="#50304D" stroke-width="0.3"/>
<path d="M248.717 276.97C249.034 275.2 248.972 273.09 248.717 271.306C248.788 273.158 248.842 275.121 248.717 276.97Z" stroke="#8C6474" stroke-width="0.3"/>
<path d="M263.705 280.652C263.934 279.369 263.973 277.993 263.705 276.687C263.821 277.95 263.79 279.386 263.705 280.652Z" stroke="#8C6474" stroke-width="0.3"/>
<path d="M103.084 284.616C101.105 284.616 99.1255 284.616 97.146 284.616C98.9954 284.795 101.215 284.797 103.084 284.616Z" stroke="#8C6474" stroke-width="0.3"/>
<path d="M118.92 294.529C121.465 294.529 124.01 294.529 126.555 294.529C124.174 294.296 121.321 294.296 118.92 294.529Z" stroke="#8C6474" stroke-width="0.3"/>
<path d="M305.557 302.175C307.242 302.11 308.961 302.141 310.647 302.175C309.043 301.979 307.183 301.943 305.557 302.175Z" stroke="#8C6474" stroke-width="0.3"/>
<path d="M360.416 321.998C359.008 322.052 357.586 321.998 356.174 321.998C357.509 322.128 359.05 322.193 360.416 321.998Z" stroke="#8C6474" stroke-width="0.3"/>
<path d="M1 143.445C1 145.901 1 148.353 1 150.808C1.65196 174.807 12.1521 197.407 29.9648 213.827C31.5517 215.289 32.1192 217.571 31.3221 219.576C20.4311 246.979 10.2769 281.976 24.1005 309.767C38.4969 338.701 71.9783 347.627 101.67 347.627C104.874 347.627 108.081 347.627 111.285 347.627C127.074 346.979 146.335 344.84 156.048 331.329C157.608 329.159 160.432 328.092 162.894 329.134C178.611 335.783 195.297 341.113 212.804 341.113C215.914 341.113 219.025 341.113 222.136 341.113C237.369 340.738 251.971 337.385 265.788 331.923C268.965 330.667 272.655 332.766 274.06 335.88C274.669 337.228 275.388 338.512 276.17 339.675C278.189 342.677 280.491 344.741 283.287 346.99C286.081 349.238 288.635 350.881 291.96 352.464C295.286 354.044 298.69 355.42 302.384 356.468C306.077 357.519 309.739 358.575 313.757 359.238C317.773 359.903 322.504 360.376 326.765 360.654C331.027 360.931 336.563 361.098 340.904 360.937C345.245 360.773 349.781 360.24 353.907 359.798C358.029 359.354 361.983 358.184 365.786 357.252C369.592 356.324 372.983 355.123 376.473 353.795C379.959 352.467 383.09 350.895 386.237 349.131C389.382 347.363 392.028 345.407 394.893 343.356C397.755 341.303 399.921 339.301 402.48 336.795C405.042 334.288 407.166 331.912 409.125 329.007C411.085 326.101 413.183 323.74 414.733 320.463C416.28 317.186 418.022 314.151 419.241 310.534C420.459 306.921 421.508 303.126 422.345 299.201C423.183 295.276 423.426 290.671 423.759 286.457C424.093 282.243 424.068 276.829 423.757 272.584C423.446 268.336 422.727 264.159 422.063 260.121C421.398 256.082 420.417 252.089 419.498 248.246C418.576 244.403 417.179 240.861 416.104 237.202C415.027 233.543 413.608 230.15 412.539 226.613C411.472 223.073 409.773 219.344 408.766 215.948C407.757 212.556 404.838 208.597 407.429 206.102C410.019 203.607 412.137 201.31 414.357 198.597C416.574 195.881 418.307 192.998 420.295 190.101C422.28 187.201 423.723 184.166 425.371 181.025C427.017 177.882 428.507 174.37 429.76 170.977C430.485 169.019 431.195 166.964 431.886 164.909C432.731 162.401 435.365 161.1 438.007 161.256C438.342 161.276 438.682 161.287 439.03 161.287C440.441 161.287 441.863 161.34 443.271 161.287C454.56 160.856 463.912 153.983 472.257 146.844C473.529 145.711 474.66 144.578 475.791 143.162C480.927 137.144 485.304 131.656 489.011 124.684C492.716 117.709 497 109.545 497 101.25C497 99.9274 497 98.6077 497 97.2852C497 85.4195 488.986 73.5877 482.366 64.3642C475.746 55.1406 468.402 47.4321 460.309 39.1601C452.216 30.8881 441.083 23.4401 429.415 22.8058C428.01 22.7293 426.582 22.8058 425.173 22.8058C421.376 22.8058 417.267 23.7856 413.868 25.077C410.471 26.3683 408.461 22.5651 405.684 20.8008C402.907 19.0337 400.523 16.921 397.526 15.3776C394.528 13.8343 391.715 12.0926 388.477 10.8466C385.239 9.60053 382.309 7.82492 378.817 6.9272C375.327 6.02665 372.033 4.52574 368.334 3.83192C364.638 3.1381 360.597 2.4018 356.74 1.84958C352.883 1.29735 348.339 1 344.298 1C341.659 1 339.018 1 336.38 1C331.804 1.11044 326.59 1.38231 322.243 2.1356C317.897 2.88606 313.686 3.2627 309.578 4.4606C305.469 5.65851 301.869 6.09462 297.941 7.81643C294.016 9.53823 291.861 6.42595 287.933 5.05531C284.006 3.68749 279.082 3.11261 274.733 3.26553C270.384 3.41846 265.619 4.28219 261.728 5.5339C257.837 6.78278 254.305 7.95236 250.762 9.56089C247.218 11.1694 244.077 12.7836 240.822 14.6159C237.567 16.4453 234.677 18.3455 231.773 20.5629C228.869 22.7803 226.151 24.8079 223.479 27.266C222.58 28.0938 221.739 28.9433 220.915 29.795C218.528 32.2619 214.762 31.3162 213.605 28.0841C211.921 23.3828 209.73 18.7916 204.951 16.5104C197.873 13.1319 188.142 17.2326 181.89 20.4496C175.638 23.6667 169.516 27.4331 163.812 31.5139C158.886 35.0338 154.14 38.349 149.798 42.545C148.508 43.7911 146.689 44.3478 144.936 43.9731C141.294 43.1946 137.659 42.6105 133.814 42.4395C128.976 42.2242 122.905 42.2384 118.072 42.346C113.239 42.4536 108.152 43.2239 103.65 44.0452C99.1509 44.8664 94.8639 45.5234 90.7042 46.9394C86.5444 48.3553 82.7891 49.2615 78.9602 51.3204C75.1342 53.382 72.5213 49.7062 68.9328 47.9447C65.3443 46.1833 62.2308 44.1414 58.4698 42.5641C54.706 40.9867 51.0411 39.2252 47.0992 37.8093C43.16 36.3933 39.1021 35.2549 34.9537 34.1136C30.8081 32.9695 25.5002 31.9868 21.0775 31.8679C16.6548 31.749 12.809 33.1168 9.83694 36.4698C6.8649 39.8256 6.04483 43.374 4.93916 47.7068C3.83065 52.0397 3.71754 57.4005 3.52525 62.1496C3.33013 66.8959 3.28488 72.4295 3.82782 77.1786C4.37076 81.9277 4.52629 87.0733 5.53017 91.6157C6.53687 96.1553 6.94408 100.279 8.37213 104.628C9.80301 108.975 6.96953 112.277 5.7875 116.522C4.60547 120.767 3.18591 124.63 2.50723 129.096C1.82855 133.562 1 138.778 1 143.445ZM398.207 29.8087C398.466 30.0446 398.741 30.262 399.04 30.4443C401.629 32.0226 404.714 33.7736 405.096 36.9654C405.5 40.3438 405.681 45.6933 406.221 49.4315C406.761 53.1724 406.968 57.6384 407.358 61.603C407.748 65.5677 408.648 69.64 408.766 73.786C408.882 77.9347 409.134 82.3214 409.337 86.5239C409.541 90.7293 409.62 95.5832 409.62 99.8339C409.776 101.448 409.903 103.408 409.903 105.215C409.903 120.433 410.333 139.008 419.518 151.375C420.369 152.352 422.928 153.737 423.194 155.056C423.468 156.404 422.165 158.588 421.78 159.871C420.722 163.408 419.546 167.259 418.112 170.638C416.676 174.019 415.064 177.417 413.319 180.566C411.571 183.713 409.657 186.695 407.57 189.535C405.483 192.375 403.433 194.933 401.207 197.606C398.982 200.279 395.951 202.364 393.719 204.833C391.488 207.302 386.449 208.67 386.998 212.827C387.233 214.599 388.621 215.458 390.325 215.716C393.683 216.224 398.061 217.526 399.177 220.733C401.768 228.179 404.173 235.358 406.773 243.149C410.115 253.177 412.64 264.499 413.39 275.319C414.139 286.14 412.561 299.425 408.498 308.838C404.431 318.248 400.153 324.971 392.441 331.839C384.73 338.706 377.222 342.122 367.466 345.625C357.707 349.125 344.17 350.249 333.269 350.175C322.368 350.102 309.908 348.114 300.274 344.421C294.175 342.083 288.688 338.731 285.298 333.88C283.077 330.704 287.828 327.075 291.324 328.746C294.44 330.236 301.934 329.774 301.032 325.255C300.13 320.735 293.934 322.318 291.129 320.449C288.321 318.58 284.02 316.065 286.412 312.596C288.807 309.127 290.716 307.609 294.16 305.629C297.602 303.647 301.552 302.545 305.556 302.316C307.182 302.084 309.043 302.121 310.647 302.316C319.254 302.489 325.241 309.161 332.443 313.055C339.646 316.949 347.572 322.139 356.174 322.139C357.586 322.139 359.008 322.193 360.416 322.139C363.377 322.026 367.132 320.783 368.269 317.543C369.406 314.304 368.594 309.447 368.241 306.091C367.887 302.735 366.586 299.36 365.571 296.304C364.556 293.248 363.021 290.431 361.33 287.808C359.639 285.186 356.508 283.144 359.073 280.581C361.641 278.021 362.218 275.662 364.07 272.841C365.925 270.024 366.903 267.379 368.269 264.303C369.635 261.228 369.954 257.75 370.879 254.457C371.804 251.16 370.486 247.456 367.138 246.026C363.79 244.596 359.873 244.511 356.174 244.545C352.476 244.579 348.689 245.536 345.367 246.465C342.044 247.394 339.075 248.241 336.077 249.623C333.08 251.002 330.371 252.276 327.591 253.868C325.982 254.791 324.578 255.792 323.164 256.802C321.311 258.124 318.819 257.901 317.127 256.38C303.439 244.079 288.394 233.629 272.074 225.666C269.637 224.477 268.508 221.573 270.106 219.382C271.064 218.07 272.127 216.805 273.249 215.305C275.46 212.355 277.745 209.681 281.152 212.066C284.557 214.447 287.388 214.572 291.197 215.88C295.006 217.186 299.033 218.004 303.3 217.364C307.57 216.727 307.174 211.372 303.554 210.018C299.935 208.665 296.827 207.263 293.391 206.039C289.953 204.813 287.119 203.159 284 201.565C280.884 199.971 278.121 198.093 275.369 196.048C272.621 194.001 270.52 191.914 268.017 189.535C265.514 187.159 263.645 184.556 261.654 181.747C259.661 178.941 258.1 176.233 256.55 172.985C254.998 169.734 253.607 166.455 252.586 162.793C251.565 159.131 250.504 155.3 249.911 151.313C249.317 147.325 249.099 142.604 249 138.348C248.901 134.092 249.232 128.906 249.566 124.755C249.899 120.603 250.897 116.837 251.539 112.855C252.178 108.871 252.9 104.795 253.804 100.964C254.709 97.1323 255.597 93.5669 256.573 89.8599C257.549 86.1501 258.598 82.3978 259.684 78.8154C260.767 75.2331 261.821 71.7866 263.116 68.377C264.414 64.9702 265.65 61.4586 267.075 58.1821C268.503 54.9084 269.968 51.9151 271.6 48.8368C273.234 45.7613 274.942 42.7991 276.925 40.0097C278.91 37.2231 280.536 34.36 283.005 31.9387C285.473 29.5174 287.325 27.2292 290.074 25.1421C292.823 23.055 295.552 21.2199 298.792 19.7133C302.03 18.2039 305.325 16.9975 308.97 16.029C312.617 15.0633 316.627 14.1628 320.547 13.4633C324.463 12.7638 328.844 12.4551 332.989 12.0473C337.135 11.6395 342.409 11.733 346.56 12.0445C350.711 12.356 355.117 12.6788 359.022 13.4406C362.927 14.1996 366.974 14.8622 370.602 16.0035C374.233 17.1419 377.409 18.337 380.799 19.668C384.187 21.0018 387.15 22.5905 390.179 24.4341C393.053 26.1877 395.768 27.5863 398.207 29.8087ZM278.375 14.5378C281.523 14.7791 282.35 17.8596 279.906 19.8585C279.505 20.1865 279.118 20.5275 278.763 20.8942C276.984 22.7265 275.171 24.4596 273.531 26.4165C271.894 28.3733 270.33 30.3896 268.865 32.5051C267.398 34.6205 265.924 36.7501 264.618 39.0128C263.309 41.2727 261.951 43.4788 260.665 45.8151C259.375 48.1486 258.275 50.635 257.22 53.1271C256.169 55.6192 255.009 58.1509 254.099 60.762C253.185 63.3702 252.091 65.9982 251.282 68.7027C250.476 71.41 249.464 74.123 248.723 76.9011C247.985 79.682 246.922 82.3214 246.234 85.1703C245.55 88.022 244.518 90.6812 243.918 93.6094C243.316 96.5404 242.366 99.1373 241.656 102.108C240.946 105.079 240.177 107.483 239.448 110.658C238.718 113.835 238.492 115.741 237.185 119.153C235.882 122.569 234.292 119.36 233.47 116.52C232.644 113.682 231.869 110.762 230.922 108.027C229.974 105.288 229.16 102.81 227.986 100.205C226.816 97.5967 225.99 95.3199 224.703 92.7315C223.414 90.1459 222.591 88.308 220.934 85.7451C219.277 83.1851 220.069 79.2346 219.873 76.0458C219.678 72.8571 220.207 68.4818 219.873 65.2845C219.543 62.0873 219.704 58.1594 219.308 55.0896C218.912 52.0198 218.239 48.8283 220.524 46.6788C222.809 44.5322 223.482 42.8954 225.458 40.8592C227.438 38.8231 228.979 37.4241 230.973 35.6202C232.966 33.8163 234.725 32.27 236.905 30.8003C239.086 29.3305 240.96 27.7276 243.274 26.4165C245.584 25.1025 247.742 23.8026 250.154 22.5452C252.566 21.2879 254.871 20.1013 257.503 19.1441C260.139 18.1897 262.633 17.1476 265.464 16.3547C268.294 15.5617 271.377 14.9982 274.456 14.5989C275.665 14.4432 277.013 14.4334 278.375 14.5378ZM204.603 195.553C203.235 197.158 201.668 198.725 200.079 200.084C195.181 204.275 190.396 207.489 184.786 210.539C179.173 213.589 172.827 216.297 166.971 218.752C161.117 221.21 155.21 224.319 149.828 227.638C144.45 230.96 139.532 234.398 134.685 238.527C129.838 242.656 125.792 246.338 121.253 251.129C116.714 255.921 113.94 260.299 109.942 265.855C107.78 268.856 108.074 272.623 109.35 276.223C110.689 280.001 108.427 284.849 104.418 284.796C104.093 284.792 103.766 284.784 103.439 284.773C103.203 284.764 102.966 284.77 102.731 284.79C100.94 284.938 98.8801 284.925 97.1459 284.758C92.3698 284.758 87.2882 284.662 82.7241 283.625C78.1571 282.589 75.4254 282.127 71.0649 279.726C66.7044 277.324 62.5419 282.663 66.252 285.962C69.9649 289.261 71.9755 289.915 76.2257 291.549C80.4788 293.183 84.0955 293.956 88.7247 294.608C93.3538 295.259 98.7295 295.279 103.65 295.236C108.57 295.194 113.898 294.67 118.92 294.67C121.321 294.438 124.174 294.438 126.555 294.67C129.779 294.67 134.411 295.403 137.211 296.46C140.01 297.519 143.31 299.147 145.148 301.254C146.989 303.361 150.023 306.459 149.964 309.175C149.902 311.891 144.198 312.684 141.916 313.451C139.634 314.219 136.178 319.962 140.151 320.984C141.509 321.335 142.737 321.216 143.909 320.896C147.232 319.99 149.66 322.308 147.632 325.091C144.223 329.77 138.819 332.261 132.491 334.031C123.764 336.472 111.602 337.041 101.953 336.865C92.3047 336.69 81.3017 335.339 72.4817 332.963C63.6589 330.59 56.3885 327.871 49.0504 322.729C41.7122 317.586 37.7419 312.777 33.5426 304.842C29.3404 296.91 27.7569 286.61 27.8643 277.112C27.9718 267.614 29.7222 257.294 32.7621 248.6C35.1294 241.832 37.0285 235.476 39.21 228.937C40.1938 225.988 43.6133 224.747 46.2732 226.355C47.4616 227.074 48.6511 227.788 49.8506 228.474C52.7633 230.145 56.578 231.631 59.5416 232.928C62.508 234.223 68.9695 235.287 69.8094 231.328C70.6492 227.367 66.1332 225.605 63.4298 223.937C60.7264 222.269 57.1379 220.658 54.3808 218.84C51.6237 217.022 48.5668 215.198 45.8917 213.181C43.2194 211.165 40.5697 209.137 38.0445 206.88C36.2488 205.343 34.4786 203.567 32.9544 201.783C28.9785 197.124 25.9046 193.488 22.7969 188.167C19.6891 182.846 17.1978 177.867 15.2013 171.702C13.2077 165.534 11.9493 158.251 11.4827 151.355C11.019 144.459 12.2236 136.026 13.253 129.379C14.2823 122.733 17.1129 117.633 19.3158 111.38C21.5187 105.127 17.3957 98.5171 16.553 91.9046C15.7132 85.292 14.008 77.4646 14.008 70.382C13.7422 67.6209 13.7422 64.3443 14.008 61.603C14.008 55.8373 14.2116 50.2754 16.7708 45.1128C19.3299 39.9502 27.1347 43.1927 31.7299 44.1386C36.328 45.0845 41.7008 47.4576 46.3074 49.0803C50.9167 50.703 55.1896 52.9997 59.731 55.1774C64.2753 57.3523 67.3435 59.8784 71.9076 62.5234C76.4717 65.1713 81.788 61.4983 86.4228 59.6434C91.0548 57.7856 96.5069 56.5962 101.67 55.3728C106.834 54.1494 113.366 53.4953 118.92 53.1073C124.474 52.7193 132.061 53.0705 137.307 53.668C142.555 54.2627 149.478 56.6104 153.632 53.3197C157.786 50.0262 160.167 47.1376 164.188 44.351C168.212 41.5672 171.71 38.6985 175.824 36.4641C179.939 34.2297 184.288 31.1316 188.504 29.6222C192.724 28.1128 199.021 23.5591 201.71 28.5347C204.4 33.5104 205.61 37.6422 206.577 43.2012C207.541 48.7631 208.845 54.3533 209.108 60.2069C209.368 66.0605 210.024 73.4291 209.41 79.4441C208.797 85.4591 210.802 90.01 213.74 94.6515C216.675 99.2902 217.835 103.091 219.808 108.112C221.782 113.133 222.843 118.004 224.053 123.401C224.515 125.463 224.842 127.74 225.067 130.089C225.484 134.423 218.87 139.482 214.602 140.339C213.644 140.532 212.746 140.734 211.956 140.897C208.11 141.687 202.437 142.89 199.211 144.558C195.981 146.224 189.356 146.929 189.899 151.658C190.441 156.387 197.72 153.53 200.837 151.851C203.953 150.168 209.396 148.911 213.092 147.699C217.1 146.385 224.609 152.748 223.855 156.898C223.758 157.432 223.656 157.964 223.548 158.495C222.943 161.469 219.627 162.896 216.665 162.235C215.298 161.93 213.905 161.716 212.521 161.57C209.207 161.219 204.224 160.349 200.927 160.72C197.63 161.091 192.011 159.517 191.032 163.272C190.054 167.024 195.322 167.497 198.385 167.514C201.447 167.534 207.055 167.463 210.259 168.083C212.062 168.432 213.947 168.795 215.777 169.322C218.195 170.018 219.232 172.692 218.192 174.984C214.806 182.446 210.038 189.272 204.603 195.553ZM415.795 39.3831C415.634 37.5471 416.512 35.7277 418.22 35.035C426.731 31.5829 436.957 35.4654 443.766 40.4345C451.302 45.934 456.802 51.5979 462.995 58.5587C469.188 65.5196 474.032 72.0585 479.12 79.7925C484.207 87.5264 488.265 99.6357 484.28 108.619C480.299 117.604 476.58 124.837 470.206 132.189C463.832 139.537 458.386 144.859 449.47 148.803C440.554 152.751 428.965 149.299 425.235 139.135C421.508 128.969 420.434 118.108 420.366 106.631C420.298 95.1528 419.47 82.2024 418.955 70.6623C418.482 60.1264 416.71 49.8337 415.795 39.3831ZM259.18 196.119C260.571 197.512 262.045 198.988 263.422 200.367C265.404 202.063 269.623 204.462 266.886 206.668C264.149 208.874 263.538 211.485 261.465 213.7C259.395 215.914 259.019 220.661 255.781 219.349C252.54 218.035 249.526 217.475 246.172 216.509C242.818 215.546 239.603 214.827 236.085 214.15C232.568 213.473 228.945 212.91 225.246 212.544C221.545 212.179 217.507 211.695 213.652 211.695C210.921 211.695 208.183 211.749 205.452 211.695C204.626 211.677 204.184 210.786 204.749 210.184C206.983 207.805 209.79 205.881 212.026 203.27C214.715 200.126 217.218 197.306 219.568 193.831C221.915 190.356 224.112 186.941 226.072 183.07C228.035 179.201 229.587 175.412 231.123 171.136C232.655 166.857 233.588 161.986 234.572 157.316C235.554 152.644 236.071 147.26 236.416 142.313C236.516 140.875 236.353 139.324 236.18 137.768C235.709 133.55 238.046 134.325 238.135 138.568C238.582 159.742 244.898 180.198 259.18 196.119ZM354.73 255.122C357.629 254.777 360.024 257.251 359.401 260.104C358.773 262.979 357.746 265.794 356.237 268.112C353.785 271.881 352.806 275.172 349.128 278.267C345.451 281.366 344.527 285.483 348.751 288.51C352.976 291.538 353.44 294.673 355.827 298.7C357.249 301.1 357.913 304.009 358.332 306.944C358.767 309.998 356.183 312.633 353.206 311.826C350.81 311.176 348.472 310.271 346.365 309.308C342.561 307.575 339.425 305.797 335.902 303.647C332.376 301.495 329.508 299.467 325.987 297.148C322.467 294.828 318.949 293.149 314.6 292.41C310.251 291.674 304.202 291.875 299.895 292.682C295.586 293.486 291.658 295.024 288.001 297.196C284.348 299.371 282.363 301.747 279.456 304.78C276.549 307.813 275.434 311.424 273.622 315.08C271.812 318.736 266.917 319.299 263.399 321.267C259.884 323.238 255.693 324.337 251.638 325.631C247.58 326.925 243.234 328.089 238.758 328.874C234.281 329.658 228.849 330.31 224.095 330.615C219.339 330.918 212.954 330.709 208.279 330.352C203.605 329.995 198.532 329.293 194.14 328.37C189.746 327.449 185.309 326.195 181.223 324.881C177.139 323.567 173.279 322.224 169.626 320.355C165.969 318.483 160.65 317.648 160.772 313.077C160.894 308.507 159.027 304.041 157.166 300.263C155.303 296.488 152.738 294.364 149.673 291.626C146.61 288.884 142.64 287.607 138.978 286.194C135.313 284.784 128.577 285.797 126.343 282.422C124.106 279.046 120.784 276.716 119.415 273.218C118.049 269.721 123.269 266.674 124.929 263.59C126.589 260.503 130.231 257.776 132.706 254.952C135.18 252.132 138.149 249.654 141 247.116C143.85 244.582 147.009 242.452 150.224 240.212C153.439 237.969 156.751 235.806 160.404 233.979C164.055 232.155 167.525 230.411 171.526 228.978C175.525 227.542 179.376 226.112 183.74 225.067C188.106 224.025 193.122 223.277 197.816 222.739C202.511 222.201 208.457 222.079 213.369 222.173C218.281 222.266 223.487 222.886 228.136 223.526C232.785 224.166 237.618 224.976 241.936 226.132C246.257 227.284 250.216 228.536 254.282 229.91C258.346 231.283 261.954 232.906 265.749 234.568C269.544 236.23 273.09 238.136 276.642 240.085C280.194 242.036 283.398 243.933 286.675 246.179C289.953 248.425 293.097 250.291 296.14 252.842C299.183 255.394 302.378 257.368 305.344 260.05C308.308 262.734 311.167 264.541 314.111 267.413C317.054 270.284 321.913 271.802 325.139 268.687C328.366 265.572 331.021 264.043 334.706 261.842C338.39 259.645 341.902 258.489 346.014 257.025C348.582 256.112 351.665 255.487 354.73 255.122Z" fill="#50304D" stroke="#50304D" stroke-opacity="0.1" stroke-linejoin="round"/>
<path d="M360.416 321.998C359.05 322.193 357.509 322.128 356.174 321.998C347.572 321.998 339.646 316.807 332.443 312.913C325.241 309.019 319.254 302.347 310.647 302.174C308.961 302.14 307.242 302.109 305.556 302.174C301.552 302.404 297.602 303.505 294.16 305.488C290.716 307.467 288.807 308.985 286.412 312.454C284.02 315.923 288.321 318.438 291.129 320.307C293.934 322.176 300.13 320.593 301.032 325.113C301.934 329.633 294.44 330.094 291.324 328.605C288.208 327.115 284.452 326.141 281.803 323.697C282.532 334.362 290.64 340.586 300.274 344.279C309.908 347.972 322.368 349.96 333.269 350.034C344.17 350.107 357.707 348.983 367.466 345.483C377.222 341.98 384.73 338.564 392.441 331.697C400.153 324.83 404.431 318.107 408.498 308.696C412.561 299.283 414.139 285.998 413.39 275.178C412.64 264.357 410.115 253.035 406.773 243.007C403.427 232.982 400.404 223.971 396.895 214.102C394.46 215.974 387.549 216.846 386.998 212.686C386.449 208.528 391.488 207.161 393.719 204.691C395.951 202.222 398.982 200.137 401.208 197.464C403.433 194.791 405.483 192.234 407.57 189.393C409.657 186.553 411.571 183.571 413.319 180.424C415.064 177.275 416.676 173.877 418.112 170.496C419.546 167.117 420.722 163.266 421.78 159.729C419.716 162.244 415.089 161.156 412.146 162.541C409.199 163.923 404.293 163.306 400.854 163.693C397.415 164.081 392.651 163.121 389.26 162.844C385.869 162.566 382.304 161.445 379.17 160.488C376.037 159.531 372.898 158.514 370.008 157.203C367.121 155.889 364.494 154.433 361.807 152.955C359.124 151.474 356.652 149.913 354.28 148.033C351.91 146.15 350.038 144.193 347.903 141.959C345.771 139.721 344.402 137.396 342.666 134.743C340.93 132.089 339.926 129.28 338.834 126.12C337.743 122.962 337.016 119.436 336.668 115.828C336.323 112.221 336.363 107.318 336.662 103.657C336.962 99.9952 337.378 96.0503 338.076 92.6123C338.775 89.1744 339.869 86.0366 340.712 82.7913C341.557 79.5487 343.022 76.8442 344.233 73.8566C345.443 70.8689 346.775 68.1417 348.234 65.4033C349.693 62.6648 351.257 60.1841 352.993 57.709C354.732 55.2367 356.519 53.025 358.507 50.7708C360.495 48.5166 362.359 46.4804 364.587 44.3989C366.816 42.3175 369.038 40.6551 371.515 38.8767C373.99 37.0954 376.495 35.6115 379.278 34.187C382.057 32.7654 384.998 31.5364 388.038 30.5027C391.078 29.4691 395.524 28.1239 398.592 30.027C396.055 27.5915 393.205 26.1387 390.179 24.2923C387.15 22.4487 384.187 20.86 380.799 19.5262C377.409 18.1952 374.233 17.0001 370.602 15.8617C366.974 14.7204 362.927 14.0578 359.022 13.2988C355.117 12.537 350.711 12.2142 346.56 11.9027C342.409 11.5912 337.135 11.4977 332.989 11.9055C328.844 12.3133 324.463 12.622 320.547 13.3215C316.627 14.021 312.617 14.9215 308.97 15.8872C305.325 16.8557 302.03 18.0621 298.792 19.5715C295.552 21.0781 292.823 22.9132 290.074 25.0003C287.325 27.0874 285.473 29.3756 283.005 31.7969C280.536 34.2182 278.91 37.0813 276.925 39.8679C274.942 42.6573 273.234 45.6195 271.6 48.695C269.968 51.7733 268.503 54.7666 267.075 58.0403C265.65 61.3168 264.414 64.8284 263.116 68.2352C261.821 71.6448 260.767 75.0913 259.684 78.6736C258.598 82.256 257.549 86.0083 256.573 89.7181C255.597 93.4251 254.709 96.9905 253.804 100.822C252.9 104.654 252.178 108.729 251.539 112.713C250.897 116.695 249.899 120.461 249.566 124.613C249.232 128.765 248.901 133.95 249 138.206C249.099 142.463 249.317 147.183 249.911 151.171C250.504 155.158 251.565 158.99 252.586 162.651C253.607 166.313 254.998 169.592 256.55 172.843C258.1 176.092 259.661 178.799 261.654 181.605C263.645 184.415 265.514 187.017 268.017 189.393C270.52 191.772 272.621 193.859 275.369 195.907C278.121 197.951 280.884 199.829 284 201.423C287.119 203.017 289.953 204.671 293.391 205.898C296.827 207.121 299.935 208.523 303.554 209.876C307.174 211.23 307.57 216.585 303.3 217.222C299.033 217.862 295.006 217.044 291.197 215.738C287.388 214.43 284.557 214.306 281.152 211.924C277.745 209.539 275.46 212.213 273.249 215.164C271.04 218.117 269.058 220.159 267.664 223.447C286.848 232.158 304.329 244.287 319.978 258.846C322.645 257.15 324.811 255.32 327.591 253.726C330.371 252.134 333.08 250.86 336.077 249.481C339.075 248.099 342.044 247.252 345.367 246.323C348.689 245.394 352.476 244.437 356.174 244.403C359.873 244.369 363.79 244.454 367.138 245.884C370.486 247.314 371.804 251.019 370.879 254.315C369.954 257.608 369.635 261.086 368.269 264.161C366.903 267.237 365.925 269.882 364.07 272.7C362.218 275.52 361.641 277.879 359.073 280.439C356.508 283.002 359.639 285.044 361.33 287.666C363.021 290.289 364.556 293.106 365.571 296.162C366.586 299.218 367.887 302.593 368.241 305.949C368.594 309.305 369.406 314.162 368.269 317.402C367.132 320.641 363.377 321.884 360.416 321.998Z" fill="#F7F9FD" stroke="black" stroke-opacity="0.05"/>
<path d="M284.348 15.5846C281.511 14.6105 277.536 14.0611 274.456 14.4575C271.377 14.8568 268.294 15.4204 265.464 16.2133C262.633 17.0063 260.139 18.0484 257.503 19.0028C254.871 19.96 252.566 21.1465 250.154 22.4039C247.742 23.6613 245.584 24.9611 243.274 26.2751C240.96 27.5863 239.086 29.1892 236.905 30.6589C234.725 32.1287 232.966 33.6749 230.973 35.4789C228.979 37.2828 227.438 38.6818 225.458 40.7179C223.482 42.7541 222.809 44.3909 220.524 46.5375C218.239 48.6869 218.912 51.8785 219.308 54.9483C219.704 58.0181 219.543 61.946 219.873 65.1432C220.207 68.3405 219.678 72.7158 219.873 75.9045C220.069 79.0933 219.277 83.0438 220.934 85.6038C222.591 88.1667 223.414 90.0046 224.703 92.5902C225.99 95.1786 226.816 97.4554 227.986 100.064C229.16 102.669 229.974 105.147 230.922 107.885C231.869 110.621 232.644 113.541 233.47 116.378C234.292 119.219 235.882 122.427 237.185 119.012C238.492 115.6 238.718 113.694 239.448 110.516C240.177 107.342 240.946 104.937 241.656 101.967C242.366 98.996 243.316 96.3991 243.918 93.4681C244.518 90.5399 245.55 87.8807 246.234 85.029C246.922 82.18 247.985 79.5407 248.723 76.7597C249.464 73.9816 250.476 71.2687 251.282 68.5613C252.091 65.8569 253.185 63.2288 254.099 60.6206C255.009 58.0096 256.169 55.4779 257.22 52.9858C258.275 50.4937 259.375 48.0073 260.665 45.6738C261.951 43.3374 263.309 41.1314 264.618 38.8715C265.925 36.6088 267.398 34.4792 268.865 32.3638C270.33 30.2483 271.894 28.232 273.531 26.2751C275.171 24.3183 276.984 22.5852 278.763 20.7529C280.539 18.9206 283.092 17.7312 284.348 15.5846Z" fill="#8C6474" stroke="black" stroke-opacity="0.05"/>
<path d="M14.008 61.4612C14.008 64.3866 14.008 67.3148 14.008 70.2401C14.008 77.3228 15.7132 85.1502 16.5531 91.7627C17.3957 98.3752 21.5187 104.985 19.3158 111.238C17.113 117.491 14.2823 122.591 13.253 129.237C12.2237 135.884 11.019 144.317 11.4828 151.213C11.9494 158.109 13.2077 165.393 15.2014 171.561C17.1978 177.726 19.6891 182.704 22.7969 188.025C25.9047 193.346 28.9785 196.983 32.9544 201.641C34.6285 203.318 36.3846 205.076 38.0445 206.739C40.5698 208.996 43.2194 211.023 45.8917 213.04C48.5668 215.056 51.6237 216.88 54.3808 218.698C57.138 220.516 60.7265 222.127 63.4299 223.795C66.1333 225.463 70.6493 227.225 69.8094 231.187C68.9696 235.146 62.508 234.081 59.5416 232.787C56.578 231.49 52.7633 230.003 49.8507 228.332C46.9352 226.664 44.0791 224.835 41.1551 223.164C38.07 231.756 35.802 239.767 32.7621 248.458C29.7222 257.152 27.9718 267.472 27.8643 276.97C27.7569 286.468 29.3405 296.768 33.5426 304.7C37.7419 312.635 41.7122 317.444 49.0504 322.587C56.3886 327.729 63.6589 330.448 72.4817 332.821C81.3017 335.197 92.3048 336.548 101.953 336.724C111.602 336.899 123.764 336.33 132.491 333.889C141.22 331.448 148.191 327.633 150.592 318.599C146.981 318.877 144.122 321.867 140.152 320.842C136.178 319.82 139.634 314.077 141.916 313.309C144.198 312.542 149.902 311.749 149.964 309.033C150.023 306.317 146.989 303.219 145.148 301.112C143.31 299.005 140.01 297.377 137.211 296.318C134.411 295.261 129.779 294.528 126.555 294.528C124.01 294.528 121.465 294.528 118.92 294.528C113.898 294.528 108.57 295.052 103.65 295.094C98.7296 295.137 93.3539 295.117 88.7247 294.466C84.0956 293.814 80.4788 293.041 76.2258 291.407C71.9755 289.773 69.965 289.119 66.252 285.82C62.5419 282.521 66.7045 277.183 71.065 279.584C75.4255 281.985 78.1572 282.447 82.7241 283.484C87.2882 284.52 92.3698 284.616 97.146 284.616C99.1255 284.616 101.105 284.616 103.084 284.616C106.729 284.781 110.25 284.418 113.83 284.333C110.352 279.445 105.941 271.267 109.942 265.713C113.94 260.157 116.715 255.779 121.253 250.987C125.792 246.196 129.838 242.514 134.685 238.385C139.532 234.256 144.45 230.818 149.828 227.497C155.21 224.178 161.117 221.068 166.971 218.61C172.827 216.155 179.173 213.447 184.786 210.397C190.396 207.347 195.181 204.133 200.079 199.942C201.563 198.455 203.13 196.884 204.603 195.411C211.011 188.005 216.491 179.844 219.873 170.773C216.93 169.227 213.463 168.562 210.259 167.941C207.055 167.321 201.447 167.392 198.385 167.372C195.322 167.355 190.054 166.882 191.033 163.13C192.011 159.375 197.63 160.949 200.927 160.578C204.224 160.207 209.207 161.077 212.521 161.428C215.835 161.779 219.203 162.513 222.136 163.977C224.143 157.412 224.833 150.491 225.529 143.587C222.594 146.824 216.788 146.345 213.092 147.557C209.396 148.769 203.953 150.027 200.837 151.709C197.72 153.388 190.441 156.245 189.899 151.516C189.356 146.787 195.981 146.082 199.211 144.417C202.437 142.749 208.11 141.545 211.956 140.755C215.799 139.965 222.181 138.232 225.529 141.321C225.54 135.524 225.263 128.657 224.053 123.259C222.843 117.862 221.782 112.991 219.808 107.97C217.835 102.949 216.675 99.1484 213.74 94.5097C210.802 89.8682 208.797 85.3173 209.411 79.3023C210.024 73.2873 209.368 65.9186 209.108 60.0651C208.845 54.2115 207.541 48.6213 206.577 43.0594C205.61 37.5003 204.4 33.3686 201.71 28.3929C199.021 23.4172 192.724 27.9709 188.504 29.4803C184.288 30.9898 179.939 34.0879 175.824 36.3223C171.71 38.5566 168.212 41.4254 164.188 44.2092C160.167 46.9958 157.786 49.8843 153.632 53.1778C149.478 56.4685 142.555 54.1209 137.307 53.5262C132.061 52.9286 124.474 52.5775 118.92 52.9654C113.366 53.3534 106.834 54.0076 101.671 55.231C96.5069 56.4544 91.0549 57.6438 86.4229 59.5015C81.7881 61.3564 76.4718 65.0294 71.9077 62.3816C67.3436 59.7366 64.2754 57.2105 59.7311 55.0356C55.1896 52.8578 50.9168 50.5611 46.3074 48.9385C41.7009 47.3158 36.328 44.9426 31.73 43.9968C27.1348 43.0509 19.33 39.8084 16.7708 44.9709C14.2116 50.1335 14.008 55.6954 14.008 61.4612ZM194.706 39.6554C197.559 40.522 197.322 44.8463 198.099 47.3016C198.874 49.7597 199.31 54.4154 199.513 57.2133C199.717 60.0113 200.107 65.6213 199.796 68.2578C199.485 70.8943 199.697 75.6718 196.945 76.4477C194.194 77.2208 192.158 73.2476 189.983 72.1375C187.812 71.0274 185.713 68.6344 183.465 67.3374C181.217 66.0404 178.799 64.7406 176.585 63.183C174.371 61.6254 171.767 60.8693 169.892 58.5585C168.017 56.2476 170.963 53.1523 172.861 51.4787C174.758 49.805 176.91 48.0351 179.068 46.6503C181.223 45.2626 183.539 43.1557 186.005 42.2693C188.47 41.3829 191.853 38.7889 194.706 39.6554ZM33.2372 56.9301C37.4054 57.5277 40.6913 59.1475 44.7436 60.6994C48.7987 62.2485 50.4558 63.874 54.5166 66.2047C58.5773 68.5382 57.2115 72.4745 53.8096 74.7004C50.4106 76.9291 48.3632 79.3533 45.6089 81.7802C42.8575 84.2072 40.1965 86.8947 37.9738 89.4264C35.7511 91.9581 31.7526 96.8234 29.3433 92.5472C26.934 88.271 27.706 84.4054 26.7332 79.8687C25.7604 75.3291 26.2468 69.8748 26.261 65.2361C26.2751 60.5975 27.8672 56.1627 33.2372 56.9301ZM178.022 109.321C181.658 109.76 185.17 111.6 187.99 114.347C190.809 117.097 193.145 120.045 192.726 124.613C192.308 129.181 186.109 129.504 185.004 125.267C183.901 121.028 180.555 119.482 176.888 118.386C173.223 117.29 168.461 118.864 165.65 121.852C162.839 124.84 162.373 127.85 160.684 131.888C158.999 135.929 151.963 133.981 152.854 129.427C153.748 124.874 154.565 122.129 157.025 118.595C159.488 115.064 161.383 113.614 165.036 111.609C168.687 109.601 173.622 108.788 178.022 109.321ZM90.642 119.232C94.4737 119.603 99.5666 121.518 102.307 124.542C105.044 127.569 109.747 130.475 108.081 135.564C106.416 140.653 100.621 137.858 99.0406 133.477C97.4599 129.096 91.858 128.21 87.8142 127.728C83.7704 127.247 78.7878 130.005 76.1494 133.038C73.5139 136.071 73.5563 143.134 68.3955 142.077C63.2347 141.021 65.7685 133.565 67.8073 130.348C69.8462 127.133 72.5326 123.902 76.2851 121.846C80.0377 119.79 86.0185 118.785 90.642 119.232ZM141.826 162.844C142.323 165.919 143.997 168.496 146.562 170.561C149.127 172.625 153.683 172.688 156.72 172.096C159.757 171.504 162.324 168.986 164.143 166.786C165.958 164.585 167.2 159.918 170.859 161.238C174.518 162.558 173.138 167.344 171.866 169.989C170.593 172.634 168.633 174.967 166.074 176.933C163.518 178.901 160.399 179.595 157.189 180.495C153.977 181.396 149.404 180.444 146.344 179.841C143.285 179.241 140.672 175.078 138.455 177.309C136.241 179.541 134.538 181.557 131.58 182.885C128.622 184.214 124.596 185.049 121.182 184.933C117.769 184.817 114.079 183.701 111.22 182.166C108.361 180.631 106.585 178.445 105.087 175.848C103.588 173.254 103 168.27 106.67 167.284C110.341 166.296 111.285 170.64 113.335 172.968C115.388 175.293 119.059 176.754 122.314 176.437C125.568 176.12 128.942 175.542 131.151 172.826C133.359 170.108 134.739 167.021 134.473 163.41C129.768 162.147 126.688 160.103 123.515 155.976C120.34 151.853 122.548 146.895 127.706 145.306C132.864 143.717 138.359 143.442 144.088 143.304C149.817 143.165 153.083 148.274 150.657 152.997C148.231 157.721 146.13 160.097 141.826 162.844ZM53.3147 163.977C50.6764 163.977 48.0352 163.977 45.3968 163.977C41.1579 163.977 38.1237 164.469 33.8028 164.826C29.4819 165.183 28.2885 160.318 32.1711 158.944C36.0537 157.571 39.235 157.48 43.1346 157.18C47.0342 156.88 51.6548 156.82 55.2942 157.18C58.9336 157.54 63.1697 157.834 66.2294 158.689C69.2891 159.545 74.1869 159.729 73.9578 163.693C73.7288 167.658 67.5047 166.259 64.6232 165.395C61.7416 164.529 56.6459 163.977 53.3147 163.977ZM72.8267 173.888C77.7528 174.69 75.7422 180.246 71.6899 180.396C67.6348 180.543 63.6985 181.809 59.8187 182.384C55.9361 182.959 53.1055 184.921 49.336 185.763C45.5665 186.601 43.1204 189.804 38.8929 189.464C34.6624 189.124 35.6239 183.296 39.2407 182.166C42.8575 181.036 45.3997 179.028 49.0928 178.156C52.7888 177.287 56.2217 175.743 60.1072 175.31C63.9954 174.88 68.7151 173.22 72.8267 173.888Z" fill="#F7F9FD" stroke="black" stroke-opacity="0.05"/>
<path d="M421.78 159.729C422.164 158.447 423.468 156.263 423.194 154.915C422.905 153.873 420.233 152.197 419.518 151.234C410.333 138.867 409.903 120.292 409.903 105.073C409.748 103.459 409.62 101.5 409.62 99.6928C409.62 95.4421 409.541 90.5881 409.337 86.3827C409.134 82.1802 408.882 77.7935 408.766 73.6448C408.647 69.4988 407.748 65.4266 407.358 61.4619C406.968 57.4972 406.761 53.0312 406.221 49.2903C405.681 45.5521 405.5 40.2027 405.096 36.8242C404.691 33.4457 401.258 31.6814 398.592 30.0276C395.524 28.1245 391.078 29.4697 388.038 30.5033C384.998 31.537 382.057 32.766 379.278 34.1877C376.495 35.6121 373.99 37.096 371.515 38.8773C369.038 40.6558 366.816 42.3181 364.587 44.3996C362.359 46.481 360.495 48.5172 358.507 50.7714C356.519 53.0256 354.732 55.2373 352.993 57.7096C351.257 60.1847 349.693 62.6654 348.234 65.4039C346.775 68.1424 345.443 70.8695 344.233 73.8572C343.022 76.8448 341.557 79.5493 340.712 82.7919C339.869 86.0373 338.775 89.175 338.076 92.613C337.378 96.0509 336.962 99.9958 336.662 103.657C336.363 107.319 336.323 112.221 336.668 115.829C337.016 119.437 337.743 122.963 338.834 126.12C339.926 129.281 340.93 132.09 342.666 134.743C344.402 137.397 345.771 139.722 347.903 141.959C350.038 144.194 351.91 146.15 354.28 148.034C356.652 149.914 359.124 151.474 361.807 152.955C364.494 154.434 367.121 155.889 370.008 157.203C372.898 158.515 376.037 159.531 379.17 160.488C382.303 161.446 385.869 162.567 389.26 162.845C392.651 163.122 397.415 164.082 400.854 163.694C404.293 163.306 409.199 163.923 412.146 162.542C415.089 161.157 419.716 162.244 421.78 159.729ZM370.879 108.472C374.165 109.007 377.759 111.182 380.282 113.498C382.801 115.815 385.298 118.873 386.13 122.085C386.958 125.299 389.345 130.937 384.713 132.804C380.084 134.673 379.312 128.754 378.296 125.398C377.281 122.042 374.425 119.448 371.1 117.879C367.771 116.31 363.046 117.82 360.628 120.578C358.21 123.339 357.653 127.876 353.157 127.352C348.658 126.828 349.489 121.218 351.585 118.318C353.68 115.418 355.227 112.807 358.635 110.935C362.042 109.061 366.635 107.781 370.879 108.472Z" fill="#F9C7A5" stroke="black" stroke-opacity="0.05"/>
<path d="M415.559 36.2576C416.362 47.7382 418.437 58.9837 418.955 70.521C419.47 82.061 420.298 95.0114 420.366 106.489C420.434 117.967 421.508 128.827 425.236 138.994C428.965 149.158 440.554 152.61 449.47 148.662C458.386 144.717 463.832 139.396 470.206 132.047C476.58 124.696 480.299 117.463 484.28 108.477C488.265 99.4943 484.207 87.3851 479.12 79.6511C474.032 71.9171 469.188 65.3782 462.995 58.4174C456.803 51.4565 451.302 45.7927 443.766 40.2931C436.23 34.7935 424.509 30.6249 415.559 36.2576Z" fill="#8C6474" stroke="black" stroke-opacity="0.05"/>
<path d="M194.706 39.6556C191.853 38.789 188.47 41.3831 186.005 42.2695C183.539 43.1559 181.223 45.2628 179.068 46.6504C176.91 48.0353 174.758 49.8052 172.861 51.4789C170.963 53.1525 168.017 56.2478 169.892 58.5587C171.766 60.8695 174.371 61.6256 176.585 63.1832C178.799 64.7407 181.217 66.0406 183.465 67.3376C185.713 68.6346 187.812 71.0276 189.983 72.1377C192.158 73.2478 194.194 77.221 196.945 76.4479C199.697 75.6719 199.485 70.8945 199.796 68.258C200.107 65.6215 199.717 60.0114 199.513 57.2135C199.309 54.4156 198.874 49.7599 198.099 47.3018C197.322 44.8465 197.559 40.5222 194.706 39.6556Z" fill="#F9C7A5" stroke="black" stroke-opacity="0.05"/>
<path d="M33.2372 56.9303C27.8672 56.1628 26.2751 60.5976 26.261 65.2363C26.2468 69.875 25.7604 75.3293 26.7332 79.8688C27.706 84.4056 26.934 88.2711 29.3433 92.5473C31.7526 96.8235 35.7511 91.9583 37.9738 89.4265C40.1965 86.8948 42.8575 84.2073 45.6089 81.7804C48.3632 79.3534 50.4106 76.9293 53.8096 74.7006C57.2115 72.4747 58.5773 68.5383 54.5166 66.2048C50.4558 63.8742 48.7987 62.2486 44.7436 60.6996C40.6913 59.1477 37.4054 57.5278 33.2372 56.9303Z" fill="#F9C7A5" stroke="black" stroke-opacity="0.05"/>
<path d="M14.008 70.2404C14.008 67.315 14.008 64.3868 14.008 61.4614C13.7422 64.2027 13.7422 67.4793 14.008 70.2404Z" fill="#8C6474" stroke="black" stroke-opacity="0.05"/>
<path d="M290.569 94.3115C286.925 93.9575 282.114 95.1228 278.715 96.8828C275.316 98.6429 273.9 101.025 271.428 103.745C268.955 106.465 269.864 112.606 273.882 112.433C277.9 112.26 278.292 107.444 281.322 105.724C284.352 104.004 289.035 101.744 292.068 103.855C295.101 105.966 297.984 108.046 297.984 112.373C297.984 116.701 300.448 121.336 304.496 118.454C308.544 115.571 306.45 110.836 305.774 107.403C305.098 103.971 302.389 101.456 300.113 98.9133C297.837 96.3703 294.213 94.6654 290.569 94.3115Z" fill="#50304D" stroke="black" stroke-opacity="0.05" stroke-linejoin="round"/>
<path d="M409.903 105.073C409.903 103.266 409.776 101.307 409.62 99.6924C409.62 101.499 409.748 103.459 409.903 105.073Z" fill="#8C6474" stroke="black" stroke-opacity="0.05"/>
<path d="M370.879 108.471C367.114 107.858 362.042 109.062 358.635 110.935C355.227 112.808 353.68 115.418 351.585 118.318C349.49 121.218 348.66 126.828 353.157 127.352C357.655 127.876 358.211 123.337 360.628 120.578C363.046 117.818 367.773 116.31 371.1 117.879C374.427 119.448 377.281 122.042 378.297 125.398C379.312 128.753 380.082 134.671 384.713 132.803C389.343 130.935 386.96 125.297 386.13 122.084C385.3 118.871 382.803 115.814 380.282 113.498C377.761 111.181 374.644 109.084 370.879 108.471Z" fill="#50304D" stroke="black" stroke-opacity="0.05"/>
<path d="M178.022 109.321C173.622 108.788 168.687 109.601 165.036 111.609C161.383 113.614 159.488 115.064 157.025 118.595C154.565 122.13 153.748 124.874 152.854 129.427C151.963 133.981 158.999 135.93 160.684 131.888C162.373 127.85 162.839 124.84 165.65 121.852C168.461 118.864 173.223 117.29 176.888 118.386C180.555 119.482 183.901 121.028 185.004 125.267C186.109 129.504 192.308 129.181 192.726 124.613C193.145 120.045 190.809 117.097 187.99 114.347C185.17 111.601 181.658 109.76 178.022 109.321Z" fill="#50304D" stroke="black" stroke-opacity="0.05"/>
<path d="M90.642 119.232C86.4144 118.823 80.0376 119.79 76.2851 121.846C72.5326 123.902 69.8462 127.132 67.8073 130.348C65.7685 133.563 63.2347 141.021 68.3955 142.077C73.5563 143.134 73.5124 136.071 76.1494 133.038C78.7863 130.005 83.7704 127.247 87.8142 127.728C91.8579 128.21 97.4599 129.096 99.0406 133.477C100.621 137.858 106.416 140.653 108.081 135.564C109.747 130.475 105.045 127.568 102.307 124.542C99.568 121.516 94.8696 119.642 90.642 119.232Z" fill="#50304D" stroke="black" stroke-opacity="0.05"/>
<path d="M329.593 191.164C331.193 191.164 332.8 191.195 334.4 191.164C338.588 191.079 342.372 189.331 345.782 187.27C349.193 185.211 350.861 182.232 352.973 179.179C355.083 176.123 354.235 168.735 349.693 169.664C345.149 170.59 346.22 175.809 342.813 178.066C339.408 180.326 336.111 182.62 331.855 182.385C327.599 182.147 324.065 180.626 320.897 178.066C317.727 175.509 315.609 172.572 315.454 168.508C315.186 166.721 314.803 165.206 315.055 164.16C315.352 162.93 316.936 162.774 318.175 162.519C320.849 161.969 323.614 161.03 325.846 159.659C328.609 157.965 330.501 156.124 332.633 153.712C334.765 151.299 336.575 148.178 336.19 144.91C335.806 141.645 333.73 139.155 330.922 137.442C328.111 135.732 325.45 134.644 322.246 133.67C319.045 132.693 315.078 131.974 311.684 131.504C308.291 131.034 303.998 131.045 301.097 132.891C298.196 134.738 296.485 137.745 296.507 141.039C296.53 144.332 297.189 148.308 298.968 151.038C300.743 153.765 301.515 156.223 304.496 158.243C307.474 160.262 306.413 163.47 304.926 166.461C303.438 169.451 302.041 171.553 299.25 173.521C296.456 175.486 292.58 175.704 289.347 174.546C286.112 173.391 284.645 171.403 282.453 168.707C280.262 166.011 281.642 162.111 278.757 159.664C275.873 157.22 272.287 161.375 272.564 164.637C272.841 167.899 273.336 171.431 275.321 174.149C277.306 176.868 278.8 178.655 281.591 180.615C284.384 182.572 287.45 183.543 290.849 184.087C294.251 184.63 298.478 183.962 301.532 182.603C305.949 180.637 310.613 181.531 314.177 184.797C318.4 188.668 324.121 191.164 329.593 191.164Z" fill="#50304D" stroke="black" stroke-opacity="0.05"/>
<path d="M144.618 168.7C142.002 165.688 144.237 161.671 146.907 158.705C148.291 157.167 149.432 155.381 150.657 152.997C153.083 148.274 149.817 143.165 144.088 143.304C138.359 143.442 132.864 143.717 127.706 145.306C122.548 146.894 120.34 151.853 123.515 155.976C124.986 157.889 126.436 159.354 128.038 160.501C131.495 162.978 134.966 166.509 132.915 170.235C132.419 171.136 131.823 171.998 131.151 172.826C128.942 175.542 125.568 176.12 122.314 176.437C119.059 176.754 115.388 175.293 113.335 172.968C111.285 170.64 110.341 166.296 106.67 167.284C103 168.27 103.588 173.254 105.086 175.848C106.585 178.445 108.361 180.631 111.22 182.166C114.079 183.701 117.769 184.817 121.182 184.933C124.596 185.049 128.622 184.213 131.58 182.885C134.538 181.557 136.241 179.541 138.455 177.309C140.672 175.078 143.285 179.241 146.344 179.841C149.404 180.444 153.977 181.396 157.189 180.495C160.399 179.595 163.518 178.901 166.074 176.933C168.633 174.967 170.593 172.634 171.866 169.989C173.138 167.344 174.518 162.558 170.859 161.238C167.2 159.918 165.958 164.585 164.143 166.786C162.324 168.986 159.757 171.504 156.72 172.096C153.683 172.688 149.127 172.625 146.562 170.561C145.842 169.981 145.192 169.361 144.618 168.7Z" fill="#50304D" stroke="black" stroke-opacity="0.05"/>
<path d="M423.194 154.915C422.928 153.595 420.369 152.21 419.518 151.233C420.233 152.196 422.905 153.873 423.194 154.915Z" fill="#8C6474" stroke="black" stroke-opacity="0.05"/>
<path d="M45.3968 163.977C47.8881 163.736 50.8432 163.736 53.3147 163.977C56.6459 163.977 61.7416 164.529 64.6232 165.396C67.5047 166.26 73.7288 167.659 73.9578 163.694C74.1869 159.729 69.2891 159.545 66.2294 158.69C63.1697 157.835 58.9336 157.54 55.2942 157.181C51.6548 156.821 47.0341 156.88 43.1346 157.181C39.235 157.481 36.0537 157.571 32.1711 158.945C28.2885 160.318 29.4818 165.184 33.8028 164.827C38.1237 164.47 41.1579 163.977 45.3968 163.977Z" fill="#50304D" stroke="black" stroke-opacity="0.05"/>
<path d="M45.3968 163.976C48.0351 163.976 50.6763 163.976 53.3147 163.976C50.8432 163.736 47.8881 163.736 45.3968 163.976Z" fill="#8C6474" stroke="black" stroke-opacity="0.05"/>
<path d="M72.8267 173.889C68.715 173.22 63.9954 174.88 60.1071 175.31C56.2217 175.744 52.7887 177.287 49.0928 178.156C45.3996 179.029 42.8574 181.036 39.2406 182.166C35.6239 183.296 34.6624 189.124 38.8928 189.464C43.1204 189.804 45.5665 186.601 49.336 185.763C53.1055 184.922 55.9361 182.959 59.8187 182.384C63.6985 181.809 67.6348 180.544 71.6899 180.396C75.7422 180.246 77.7528 174.69 72.8267 173.889Z" fill="#50304D" stroke="black" stroke-opacity="0.05"/>
<path d="M200.079 199.942C201.668 198.583 203.235 197.017 204.603 195.411C203.13 196.884 201.563 198.455 200.079 199.942Z" fill="#8C6474" stroke="black" stroke-opacity="0.05"/>
<path d="M38.0445 206.739C36.3846 205.076 34.6285 203.318 32.9544 201.641C34.4786 203.425 36.2488 205.201 38.0445 206.739Z" fill="#8C6474" stroke="black" stroke-opacity="0.05"/>
<path d="M360.133 254.598C355.567 254.697 350.129 255.419 346.014 256.883C341.902 258.348 338.39 259.503 334.706 261.701C331.021 263.901 328.366 265.43 325.139 268.545C321.913 271.66 317.054 270.143 314.111 267.271C311.167 264.399 308.308 262.593 305.344 259.908C302.378 257.226 299.183 255.252 296.14 252.701C293.097 250.149 289.953 248.283 286.675 246.037C283.398 243.792 280.194 241.894 276.642 239.943C273.09 237.995 269.544 236.089 265.749 234.426C261.954 232.764 258.346 231.141 254.282 229.768C250.216 228.394 246.257 227.143 241.936 225.99C237.618 224.835 232.785 224.025 228.136 223.385C223.487 222.745 218.281 222.125 213.369 222.031C208.458 221.938 202.511 222.059 197.816 222.597C193.122 223.136 188.106 223.883 183.74 224.925C179.376 225.97 175.525 227.4 171.526 228.836C167.525 230.269 164.055 232.014 160.404 233.837C156.751 235.664 153.439 237.828 150.224 240.07C147.009 242.31 143.85 244.44 141 246.975C138.149 249.512 135.18 251.99 132.706 254.811C130.231 257.634 126.589 260.361 124.929 263.448C123.269 266.532 118.049 269.579 119.415 273.076C120.784 276.574 124.106 278.904 126.343 282.28C128.577 285.656 135.313 284.642 138.978 286.052C142.64 287.465 146.61 288.743 149.673 291.484C152.738 294.222 155.303 296.346 157.167 300.121C159.027 303.899 160.894 308.365 160.772 312.936C160.65 317.506 165.97 318.342 169.626 320.214C173.279 322.083 177.139 323.425 181.223 324.739C185.309 326.053 189.746 327.308 194.14 328.228C198.532 329.151 203.605 329.854 208.279 330.21C212.954 330.567 219.339 330.777 224.095 330.474C228.849 330.168 234.281 329.517 238.758 328.732C243.234 327.948 247.58 326.784 251.638 325.49C255.693 324.195 259.884 323.097 263.399 321.126C266.917 319.157 271.812 318.594 273.622 314.938C275.435 311.282 276.549 307.671 279.456 304.638C282.363 301.605 284.348 299.229 288.001 297.054C291.658 294.882 295.586 293.344 299.895 292.54C304.202 291.733 310.251 291.532 314.6 292.268C318.949 293.007 322.467 294.687 325.987 297.006C329.508 299.325 332.376 301.353 335.902 303.505C339.425 305.655 342.561 307.433 346.365 309.166C350.165 310.902 354.713 312.451 359.002 312.652C358.465 308.042 358.213 302.585 355.827 298.558C353.44 294.531 352.976 291.396 348.751 288.369C344.527 285.341 345.451 281.224 349.128 278.126C352.807 275.03 353.785 271.74 356.237 267.97C358.691 264.201 359.868 259.121 360.133 254.598ZM209.976 257.147C210.638 261.78 210.711 267.197 210.259 271.873C210.259 276.529 209.213 281.55 208.469 285.939C207.728 290.328 205.873 294.129 204.623 298.229C203.376 302.333 200.424 304.836 199.013 308.753C197.602 312.669 191.041 315.014 189.624 310.381C188.205 305.745 192.712 303.307 194.118 299.32C195.526 295.335 197.686 291.988 198.603 287.669C199.519 283.351 200.613 278.457 200.921 273.85C201.227 269.239 201.399 262.853 200.834 258.373C200.271 253.893 200.161 248.218 198.727 244.341C197.293 240.464 195.865 233.625 201.21 233.642C206.557 233.662 206.571 239.476 207.711 243.273C208.853 247.071 209.815 252.947 209.976 257.147ZM170.104 249.501C176.828 250.594 179.69 259.67 175.265 264.581C170.839 269.491 162.285 269.197 159.423 262.462C156.561 255.728 162.619 248.283 170.104 249.501ZM248.717 271.306C248.972 273.091 249.034 275.2 248.717 276.97C248.451 280.898 245.85 285.913 243.132 288.652C240.412 291.388 235.969 296.697 231.968 292.894C227.97 289.091 232.658 285.803 236.346 282.988C240.033 280.173 239.866 274.393 239.448 269.828C239.029 265.263 233.19 262.876 233.73 257.996C234.27 253.117 241.803 254.468 243.839 258.634C245.878 262.797 248.528 266.311 248.717 271.306ZM263.705 280.652C263.79 279.386 263.821 277.95 263.705 276.687C263.051 273.524 261.598 269.112 266.253 268.761C270.907 268.407 271.04 272.357 272.183 275.56C273.322 278.766 272.528 283.47 271.628 286.604C270.732 289.742 269.278 292.342 267.027 294.741C264.774 297.136 262.022 299.529 258.595 297.38C255.165 295.233 257.088 291.495 259.675 289.643C262.263 287.791 263.51 283.532 263.705 280.652Z" fill="#F9C7A5" stroke="black" stroke-opacity="0.05"/>
<path d="M210.259 271.873C210.259 266.895 210.163 262.075 209.976 257.147C209.815 252.947 208.853 247.071 207.711 243.273C206.571 239.476 206.557 233.662 201.21 233.642C195.865 233.625 197.293 240.464 198.727 244.341C200.161 248.218 200.271 253.893 200.834 258.373C201.399 262.853 201.227 269.239 200.921 273.85C200.613 278.457 199.519 283.351 198.603 287.669C197.686 291.988 195.526 295.335 194.118 299.32C192.712 303.307 188.205 305.746 189.624 310.381C191.041 315.014 197.601 312.67 199.013 308.753C200.424 304.837 203.376 302.333 204.623 298.23C205.873 294.129 207.728 290.329 208.469 285.939C209.213 281.55 210.259 276.529 210.259 271.873Z" fill="#50304D" stroke="black" stroke-opacity="0.05"/>
<path d="M170.104 249.501C162.619 248.283 156.561 255.728 159.423 262.463C162.285 269.197 170.839 269.491 175.265 264.581C179.69 259.67 176.828 250.594 170.104 249.501Z" fill="#50304D" stroke="black" stroke-opacity="0.05"/>
<path d="M248.717 276.97C248.842 275.121 248.788 273.159 248.717 271.307C248.528 266.311 245.878 262.797 243.839 258.634C241.803 254.468 234.27 253.117 233.73 257.997C233.19 262.876 239.029 265.263 239.448 269.828C239.866 274.393 240.033 280.173 236.345 282.988C232.658 285.803 227.969 289.091 231.968 292.894C235.969 296.698 240.412 291.388 243.132 288.652C245.85 285.914 248.451 280.898 248.717 276.97Z" fill="#50304D" stroke="black" stroke-opacity="0.05"/>
<path d="M210.259 271.873C210.711 267.197 210.638 261.78 209.976 257.147C210.163 262.075 210.259 266.894 210.259 271.873Z" fill="#8C6474" stroke="black" stroke-opacity="0.05"/>
<path d="M263.705 276.688C263.973 277.993 263.934 279.369 263.705 280.652C263.51 283.532 262.262 287.791 259.675 289.644C257.088 291.496 255.165 295.234 258.595 297.38C262.022 299.53 264.774 297.137 267.027 294.741C269.278 292.342 270.732 289.743 271.628 286.605C272.527 283.47 273.322 278.766 272.182 275.56C271.04 272.358 270.907 268.407 266.253 268.761C261.598 269.112 263.051 273.524 263.705 276.688Z" fill="#50304D" stroke="black" stroke-opacity="0.05"/>
<path d="M248.717 276.97C249.034 275.2 248.972 273.09 248.717 271.306C248.788 273.158 248.842 275.121 248.717 276.97Z" fill="#8C6474" stroke="black" stroke-opacity="0.05"/>
<path d="M263.705 280.652C263.934 279.369 263.973 277.993 263.705 276.687C263.821 277.95 263.79 279.386 263.705 280.652Z" fill="#8C6474" stroke="black" stroke-opacity="0.05"/>
<path d="M103.084 284.616C101.105 284.616 99.1255 284.616 97.146 284.616C98.9954 284.795 101.215 284.797 103.084 284.616Z" fill="#8C6474" stroke="black" stroke-opacity="0.05"/>
<path d="M118.92 294.529C121.465 294.529 124.01 294.529 126.555 294.529C124.174 294.296 121.321 294.296 118.92 294.529Z" fill="#8C6474" stroke="black" stroke-opacity="0.05"/>
<path d="M305.557 302.175C307.242 302.11 308.961 302.141 310.647 302.175C309.043 301.979 307.183 301.943 305.557 302.175Z" fill="#8C6474" stroke="black" stroke-opacity="0.05"/>
<path d="M360.416 321.998C359.008 322.052 357.586 321.998 356.174 321.998C357.509 322.128 359.05 322.193 360.416 321.998Z" fill="#8C6474" stroke="black" stroke-opacity="0.05"/>
</svg>
